<svg width="160" height="167" viewBox="0 0 160 167" fill="none" xmlns="http://www.w3.org/2000/svg">
<rect x="8.83452" y="10.0884" width="26.4766" height="95" rx="13.2383" transform="rotate(-0.499328 8.83452 10.0884)" fill="#0764FD"/>
<rect x="114.745" y="14.201" width="26.4766" height="95" rx="13.2383" transform="rotate(-0.499328 114.745 14.201)" fill="#0764FD"/>
<rect x="79.4415" y="0.163208" width="26.4766" height="95" rx="13.2383" transform="rotate(-0.499328 79.4415 0.163208)" fill="#0764FD"/>
<rect x="44.138" y="26.2788" width="26.4766" height="95" rx="13.2383" transform="rotate(-0.499328 44.138 26.2788)" fill="#0764FD"/>
<path d="M31.59 134.227V155.737C31.59 159.067 30.645 161.632 28.755 163.432C26.895 165.232 24.375 166.132 21.195 166.132C17.865 166.132 15.195 165.187 13.185 163.297C11.175 161.407 10.17 158.722 10.17 155.242H17.82C17.82 156.562 18.09 157.567 18.63 158.257C19.17 158.917 19.95 159.247 20.97 159.247C21.9 159.247 22.62 158.947 23.13 158.347C23.64 157.747 23.895 156.877 23.895 155.737V134.227H31.59ZM48.7856 166.177C46.3256 166.177 44.1056 165.652 42.1256 164.602C40.1756 163.552 38.6306 162.052 37.4906 160.102C36.3806 158.152 35.8256 155.872 35.8256 153.262C35.8256 150.682 36.3956 148.417 37.5356 146.467C38.6756 144.487 40.2356 142.972 42.2156 141.922C44.1956 140.872 46.4156 140.347 48.8756 140.347C51.3356 140.347 53.5556 140.872 55.5356 141.922C57.5156 142.972 59.0756 144.487 60.2156 146.467C61.3556 148.417 61.9256 150.682 61.9256 153.262C61.9256 155.842 61.3406 158.122 60.1706 160.102C59.0306 162.052 57.4556 163.552 55.4456 164.602C53.4656 165.652 51.2456 166.177 48.7856 166.177ZM48.7856 159.517C50.2556 159.517 51.5006 158.977 52.5206 157.897C53.5706 156.817 54.0956 155.272 54.0956 153.262C54.0956 151.252 53.5856 149.707 52.5656 148.627C51.5756 147.547 50.3456 147.007 48.8756 147.007C47.3756 147.007 46.1306 147.547 45.1406 148.627C44.1506 149.677 43.6556 151.222 43.6556 153.262C43.6556 155.272 44.1356 156.817 45.0956 157.897C46.0856 158.977 47.3156 159.517 48.7856 159.517ZM73.253 144.262C73.973 143.092 75.008 142.147 76.358 141.427C77.708 140.707 79.253 140.347 80.993 140.347C83.063 140.347 84.938 140.872 86.618 141.922C88.298 142.972 89.618 144.472 90.578 146.422C91.568 148.372 92.063 150.637 92.063 153.217C92.063 155.797 91.568 158.077 90.578 160.057C89.618 162.007 88.298 163.522 86.618 164.602C84.938 165.652 83.063 166.177 80.993 166.177C79.223 166.177 77.678 165.832 76.358 165.142C75.038 164.422 74.003 163.477 73.253 162.307V165.817H65.558V132.517H73.253V144.262ZM84.233 153.217C84.233 151.297 83.693 149.797 82.613 148.717C81.563 147.607 80.258 147.052 78.698 147.052C77.168 147.052 75.863 147.607 74.783 148.717C73.733 149.827 73.208 151.342 73.208 153.262C73.208 155.182 73.733 156.697 74.783 157.807C75.863 158.917 77.168 159.472 78.698 159.472C80.228 159.472 81.533 158.917 82.613 157.807C83.693 156.667 84.233 155.137 84.233 153.217ZM119.32 152.857C119.32 153.577 119.275 154.327 119.185 155.107H101.77C101.89 156.667 102.385 157.867 103.255 158.707C104.155 159.517 105.25 159.922 106.54 159.922C108.46 159.922 109.795 159.112 110.545 157.492H118.735C118.315 159.142 117.55 160.627 116.44 161.947C115.36 163.267 113.995 164.302 112.345 165.052C110.695 165.802 108.85 166.177 106.81 166.177C104.35 166.177 102.16 165.652 100.24 164.602C98.32 163.552 96.82 162.052 95.74 160.102C94.66 158.152 94.12 155.872 94.12 153.262C94.12 150.652 94.645 148.372 95.695 146.422C96.775 144.472 98.275 142.972 100.195 141.922C102.115 140.872 104.32 140.347 106.81 140.347C109.24 140.347 111.4 140.857 113.29 141.877C115.18 142.897 116.65 144.352 117.7 146.242C118.78 148.132 119.32 150.337 119.32 152.857ZM111.445 150.832C111.445 149.512 110.995 148.462 110.095 147.682C109.195 146.902 108.07 146.512 106.72 146.512C105.43 146.512 104.335 146.887 103.435 147.637C102.565 148.387 102.025 149.452 101.815 150.832H111.445ZM130.624 144.892C131.524 143.512 132.649 142.432 133.999 141.652C135.349 140.842 136.849 140.437 138.499 140.437V148.582H136.384C134.464 148.582 133.024 149.002 132.064 149.842C131.104 150.652 130.624 152.092 130.624 154.162V165.817H122.929V140.707H130.624V144.892Z" fill="black"/>
</svg>
