<svg width="129" height="128" viewBox="0 0 129 128" fill="none" xmlns="http://www.w3.org/2000/svg">
<rect x="7.16444" y="7.36279" width="21.493" height="68.1827" rx="10.7465" transform="rotate(-0.499328 7.16444 7.36279)" fill="#0764FD"/>
<rect x="85.9723" y="10.235" width="21.493" height="68.1827" rx="10.7465" transform="rotate(-0.499328 85.9723 10.235)" fill="#0764FD"/>
<rect x="59.4641" y="0.186523" width="21.493" height="68.1827" rx="10.7465" transform="rotate(-0.499328 59.4641 0.186523)" fill="#0764FD"/>
<rect x="33.275" y="18.9567" width="21.493" height="68.1827" rx="10.7465" transform="rotate(-0.499328 33.275 18.9567)" fill="#0764FD"/>
<path d="M25.072 101.403V118.611C25.072 121.275 24.316 123.327 22.804 124.767C21.316 126.207 19.3 126.927 16.756 126.927C14.092 126.927 11.956 126.171 10.348 124.659C8.74 123.147 7.936 120.999 7.936 118.215H14.056C14.056 119.271 14.272 120.075 14.704 120.627C15.136 121.155 15.76 121.419 16.576 121.419C17.32 121.419 17.896 121.179 18.304 120.699C18.712 120.219 18.916 119.523 18.916 118.611V101.403H25.072ZM38.8285 126.963C36.8605 126.963 35.0845 126.543 33.5005 125.703C31.9405 124.863 30.7045 123.663 29.7925 122.103C28.9045 120.543 28.4605 118.719 28.4605 116.631C28.4605 114.567 28.9165 112.755 29.8285 111.195C30.7405 109.611 31.9885 108.399 33.5725 107.559C35.1565 106.719 36.9325 106.299 38.9005 106.299C40.8685 106.299 42.6445 106.719 44.2285 107.559C45.8125 108.399 47.0605 109.611 47.9725 111.195C48.8845 112.755 49.3405 114.567 49.3405 116.631C49.3405 118.695 48.8725 120.519 47.9365 122.103C47.0245 123.663 45.7645 124.863 44.1565 125.703C42.5725 126.543 40.7965 126.963 38.8285 126.963ZM38.8285 121.635C40.0045 121.635 41.0005 121.203 41.8165 120.339C42.6565 119.475 43.0765 118.239 43.0765 116.631C43.0765 115.023 42.6685 113.787 41.8525 112.923C41.0605 112.059 40.0765 111.627 38.9005 111.627C37.7005 111.627 36.7045 112.059 35.9125 112.923C35.1205 113.763 34.7245 114.999 34.7245 116.631C34.7245 118.239 35.1085 119.475 35.8765 120.339C36.6685 121.203 37.6525 121.635 38.8285 121.635ZM58.4024 109.431C58.9784 108.495 59.8064 107.739 60.8864 107.163C61.9664 106.587 63.2024 106.299 64.5944 106.299C66.2504 106.299 67.7504 106.719 69.0944 107.559C70.4384 108.399 71.4944 109.599 72.2624 111.159C73.0544 112.719 73.4504 114.531 73.4504 116.595C73.4504 118.659 73.0544 120.483 72.2624 122.067C71.4944 123.627 70.4384 124.839 69.0944 125.703C67.7504 126.543 66.2504 126.963 64.5944 126.963C63.1784 126.963 61.9424 126.687 60.8864 126.135C59.8304 125.559 59.0024 124.803 58.4024 123.867V126.675H52.2464V100.035H58.4024V109.431ZM67.1864 116.595C67.1864 115.059 66.7544 113.859 65.8904 112.995C65.0504 112.107 64.0064 111.663 62.7584 111.663C61.5344 111.663 60.4904 112.107 59.6264 112.995C58.7864 113.883 58.3664 115.095 58.3664 116.631C58.3664 118.167 58.7864 119.379 59.6264 120.267C60.4904 121.155 61.5344 121.599 62.7584 121.599C63.9824 121.599 65.0264 121.155 65.8904 120.267C66.7544 119.355 67.1864 118.131 67.1864 116.595ZM95.256 116.307C95.256 116.883 95.22 117.483 95.148 118.107H81.216C81.312 119.355 81.708 120.315 82.404 120.987C83.124 121.635 84 121.959 85.032 121.959C86.568 121.959 87.636 121.311 88.236 120.015H94.788C94.452 121.335 93.84 122.523 92.952 123.579C92.088 124.635 90.996 125.463 89.676 126.063C88.356 126.663 86.88 126.963 85.248 126.963C83.28 126.963 81.528 126.543 79.992 125.703C78.456 124.863 77.256 123.663 76.392 122.103C75.528 120.543 75.096 118.719 75.096 116.631C75.096 114.543 75.516 112.719 76.356 111.159C77.22 109.599 78.42 108.399 79.956 107.559C81.492 106.719 83.256 106.299 85.248 106.299C87.192 106.299 88.92 106.707 90.432 107.523C91.944 108.339 93.12 109.503 93.96 111.015C94.824 112.527 95.256 114.291 95.256 116.307ZM88.956 114.687C88.956 113.631 88.596 112.791 87.876 112.167C87.156 111.543 86.256 111.231 85.176 111.231C84.144 111.231 83.268 111.531 82.548 112.131C81.852 112.731 81.42 113.583 81.252 114.687H88.956ZM104.3 109.935C105.02 108.831 105.92 107.967 107 107.343C108.08 106.695 109.28 106.371 110.6 106.371V112.887H108.908C107.372 112.887 106.22 113.223 105.452 113.895C104.684 114.543 104.3 115.695 104.3 117.351V126.675H98.1436V106.587H104.3V109.935Z" fill="black"/>
</svg>
