<svg width="32" height="24" viewBox="0 0 32 24" fill="none" xmlns="http://www.w3.org/2000/svg">
<mask id="mask0_270_67498" style="mask-type:luminance" maskUnits="userSpaceOnUse" x="0" y="0" width="32" height="24">
<rect width="32" height="24" fill="white"/>
</mask>
<g mask="url(#mask0_270_67498)">
<path d="M0 0H32V24H0V0Z" fill="#032EA1"/>
<path d="M0 6H32V18H0V6Z" fill="#E00025"/>
<path d="M12.62 11.31H19.448V13.938H12.62V11.31Z" fill="white" stroke="black" stroke-width="0.06" stroke-linejoin="bevel"/>
<path fill-rule="evenodd" clip-rule="evenodd" d="M19.448 11.85H12.62V12.126H19.448V11.85ZM12.62 12.27H19.448V12.57H12.62V12.27ZM19.1 12.756H19.31V13.746H19.1V12.756Z" fill="white"/>
<path d="M12.62 11.85V11.82L12.59 11.85H12.62ZM19.448 11.85H19.478L19.448 11.82V11.85ZM12.62 12.126H12.59L12.62 12.156V12.126ZM19.448 12.126V12.156L19.478 12.126H19.448ZM19.448 12.27H19.478L19.448 12.24V12.27ZM12.62 12.27V12.24L12.59 12.27H12.62ZM19.448 12.57V12.6L19.478 12.57H19.448ZM12.62 12.57H12.59L12.62 12.6V12.57ZM19.31 12.756H19.34L19.31 12.726V12.756ZM19.1 12.756V12.726L19.07 12.756H19.1ZM19.31 13.746V13.776L19.34 13.746H19.31ZM19.1 13.746H19.07L19.1 13.776V13.746ZM12.62 11.88H19.448V11.82H12.62V11.88ZM12.65 12.126V11.85H12.59V12.126H12.65ZM19.448 12.096H12.62V12.156H19.448V12.096ZM19.418 11.85V12.126H19.478V11.85H19.418ZM19.448 12.24H12.62V12.3H19.448V12.24ZM19.478 12.57V12.27H19.418V12.57H19.478ZM12.62 12.6H19.448V12.54H12.62V12.6ZM12.59 12.27V12.57H12.65V12.27H12.59ZM19.31 12.726H19.1V12.786H19.31V12.726ZM19.34 13.746V12.756H19.28V13.746H19.34ZM19.1 13.776H19.31V13.716H19.1V13.776ZM19.07 12.756V13.746H19.13V12.756H19.07Z" fill="black"/>
<path d="M12.62 11.442H19.448V11.7H12.62V11.442Z" fill="white" stroke="black" stroke-width="0.06" stroke-linejoin="bevel"/>
<path fill-rule="evenodd" clip-rule="evenodd" d="M12.89 12.756H12.68V13.746H12.89V12.756ZM14.42 12.756H14.636V13.746H14.42V12.756ZM17.36 12.756H17.576V13.746H17.36V12.756ZM13.1 12.756H13.31V13.746H13.1V12.756ZM13.76 12.756H13.55V13.746H13.76V12.756ZM14 12.756H14.21V13.746H14V12.756ZM17.984 12.756H17.768V13.746H17.984V12.756ZM18.218 12.756H18.434V13.746H18.218V12.756ZM18.884 12.756H18.668V13.746H18.884V12.756Z" fill="white"/>
<path d="M12.68 12.756V12.726L12.65 12.756H12.68ZM12.89 12.756H12.92L12.89 12.726V12.756ZM12.68 13.746H12.65L12.68 13.776V13.746ZM12.89 13.746V13.776L12.92 13.746H12.89ZM14.636 12.756H14.666L14.636 12.726V12.756ZM14.42 12.756V12.726L14.39 12.756H14.42ZM14.636 13.746V13.776L14.666 13.746H14.636ZM14.42 13.746H14.39L14.42 13.776V13.746ZM17.576 12.756H17.606L17.576 12.726V12.756ZM17.36 12.756V12.726L17.33 12.756H17.36ZM17.576 13.746V13.776L17.606 13.746H17.576ZM17.36 13.746H17.33L17.36 13.776V13.746ZM13.31 12.756H13.34L13.31 12.726V12.756ZM13.1 12.756V12.726L13.07 12.756H13.1ZM13.31 13.746V13.776L13.34 13.746H13.31ZM13.1 13.746H13.07L13.1 13.776V13.746ZM13.55 12.756V12.726L13.52 12.756H13.55ZM13.76 12.756H13.79L13.76 12.726V12.756ZM13.55 13.746H13.52L13.55 13.776V13.746ZM13.76 13.746V13.776L13.79 13.746H13.76ZM14.21 12.756H14.24L14.21 12.726V12.756ZM14 12.756V12.726L13.97 12.756H14ZM14.21 13.746V13.776L14.24 13.746H14.21ZM14 13.746H13.97L14 13.776V13.746ZM17.768 12.756V12.726L17.738 12.756H17.768ZM17.984 12.756H18.014L17.984 12.726V12.756ZM17.768 13.746H17.738L17.768 13.776V13.746ZM17.984 13.746V13.776L18.014 13.746H17.984ZM18.434 12.756H18.464L18.434 12.726V12.756ZM18.218 12.756V12.726L18.188 12.756H18.218ZM18.434 13.746V13.776L18.464 13.746H18.434ZM18.218 13.746H18.188L18.218 13.776V13.746ZM18.668 12.756V12.726L18.638 12.756H18.668ZM18.884 12.756H18.914L18.884 12.726V12.756ZM18.668 13.746H18.638L18.668 13.776V13.746ZM18.884 13.746V13.776L18.914 13.746H18.884ZM12.68 12.786H12.89V12.726H12.68V12.786ZM12.71 13.746V12.756H12.65V13.746H12.71ZM12.89 13.716H12.68V13.776H12.89V13.716ZM12.86 12.756V13.746H12.92V12.756H12.86ZM14.636 12.726H14.42V12.786H14.636V12.726ZM14.666 13.746V12.756H14.606V13.746H14.666ZM14.42 13.776H14.636V13.716H14.42V13.776ZM14.39 12.756V13.746H14.45V12.756H14.39ZM17.576 12.726H17.36V12.786H17.576V12.726ZM17.606 13.746V12.756H17.546V13.746H17.606ZM17.36 13.776H17.576V13.716H17.36V13.776ZM17.33 12.756V13.746H17.39V12.756H17.33ZM13.31 12.726H13.1V12.786H13.31V12.726ZM13.34 13.746V12.756H13.28V13.746H13.34ZM13.1 13.776H13.31V13.716H13.1V13.776ZM13.07 12.756V13.746H13.13V12.756H13.07ZM13.55 12.786H13.76V12.726H13.55V12.786ZM13.58 13.746V12.756H13.52V13.746H13.58ZM13.76 13.716H13.55V13.776H13.76V13.716ZM13.73 12.756V13.746H13.79V12.756H13.73ZM14.21 12.726H14V12.786H14.21V12.726ZM14.24 13.746V12.756H14.18V13.746H14.24ZM14 13.776H14.21V13.716H14V13.776ZM13.97 12.756V13.746H14.03V12.756H13.97ZM17.768 12.786H17.984V12.726H17.768V12.786ZM17.798 13.746V12.756H17.738V13.746H17.798ZM17.984 13.716H17.768V13.776H17.984V13.716ZM17.954 12.756V13.746H18.014V12.756H17.954ZM18.434 12.726H18.218V12.786H18.434V12.726ZM18.464 13.746V12.756H18.404V13.746H18.464ZM18.218 13.776H18.434V13.716H18.218V13.776ZM18.188 12.756V13.746H18.248V12.756H18.188ZM18.668 12.786H18.884V12.726H18.668V12.786ZM18.698 13.746V12.756H18.638V13.746H18.698ZM18.884 13.716H18.668V13.776H18.884V13.716ZM18.854 12.756V13.746H18.914V12.756H18.854Z" fill="black"/>
<path d="M9.95001 14.07C10.0755 14.0017 10.17 13.8879 10.214 13.752H21.8C21.8441 13.8879 21.9386 14.0017 22.064 14.07H9.95001Z" fill="white" stroke="black" stroke-width="0.06"/>
<path fill-rule="evenodd" clip-rule="evenodd" d="M15.998 7.056C15.854 7.062 15.86 7.308 15.86 7.308H16.13C16.13 7.308 16.136 7.056 15.998 7.056ZM15.11 10.248V10.578H16.886V10.248C16.8892 10.1577 16.9376 10.1124 16.9816 10.0713C17.0194 10.0359 17.054 10.0035 17.054 9.948C17.054 9.948 17.078 9.768 17.024 9.684C16.964 9.924 16.844 9.882 16.844 9.78C16.844 9.707 16.8939 9.63399 16.9975 9.48222L17.048 9.408C17.096 9.336 17.066 9.126 17.006 9.048C16.982 9.234 16.952 9.318 16.874 9.318C16.826 9.318 16.784 9.288 16.784 9.198C16.784 9.12488 16.8152 9.07403 16.8477 9.02103C16.8686 8.98705 16.89 8.95219 16.904 8.91C16.9478 8.80138 16.9244 8.6772 16.844 8.592C16.8388 8.62356 16.8346 8.65181 16.8309 8.67692L16.8309 8.67693C16.8135 8.79504 16.8063 8.844 16.742 8.844C16.591 8.79926 16.7215 8.58767 16.7691 8.51058L16.778 8.496C16.808 8.382 16.718 8.292 16.718 8.292C16.67 8.448 16.658 8.466 16.598 8.448C16.526 8.43 16.538 8.328 16.622 8.244C16.676 8.19 16.67 8.106 16.61 8.046C16.55 8.166 16.454 8.148 16.466 8.076L16.52 7.818L16.448 7.818L16.472 7.632H15.518L15.542 7.818L15.476 7.818L15.524 8.082C15.518 8.154 15.446 8.16 15.386 8.046C15.326 8.106 15.32 8.184 15.374 8.244C15.458 8.328 15.47 8.43 15.398 8.448C15.338 8.466 15.326 8.454 15.278 8.292C15.278 8.292 15.182 8.43 15.218 8.496L15.2284 8.51277C15.277 8.59093 15.4036 8.79415 15.254 8.844C15.1897 8.844 15.1825 8.79504 15.1651 8.67693C15.1614 8.65181 15.1573 8.62357 15.152 8.592C15.0696 8.6759 15.0438 8.80023 15.086 8.91C15.1013 8.94918 15.1212 8.98205 15.1405 9.01375C15.1743 9.06943 15.206 9.12154 15.206 9.198C15.206 9.288 15.17 9.318 15.122 9.318C15.044 9.318 15.014 9.228 14.99 9.048C14.93 9.126 14.9 9.336 14.948 9.402L14.9787 9.44856C15.0949 9.625 15.146 9.7025 15.146 9.78C15.146 9.882 15.032 9.924 14.966 9.684C14.918 9.768 14.942 9.948 14.942 9.948C14.942 10.003 14.9773 10.0353 15.0155 10.0703C15.0607 10.1117 15.11 10.157 15.11 10.248ZM15.59 7.476L15.602 7.626H16.382L16.4 7.476H15.59ZM15.74 7.47L15.722 7.314H16.262L16.256 7.47H15.74ZM17.42 13.77C17.42 13.896 17.6 14.028 17.72 14.07H14.33C14.45 14.028 14.57 13.896 14.57 13.77V12.312L14.42 12.108H17.576L17.42 12.312V13.77Z" fill="white"/>
<path d="M15.86 7.308L15.83 7.30873L15.8307 7.338H15.86V7.308ZM15.998 7.056V7.02597L15.9968 7.02603L15.998 7.056ZM16.13 7.308V7.338H16.1593L16.16 7.30871L16.13 7.308ZM15.11 10.578H15.08V10.608H15.11V10.578ZM16.886 10.578V10.608H16.916V10.578H16.886ZM16.886 10.248L16.856 10.2469V10.248H16.886ZM16.9816 10.0713L17.0021 10.0932V10.0932L16.9816 10.0713ZM17.054 9.948L17.024 9.944V9.948H17.054ZM17.024 9.684L17.0493 9.66778L17.0117 9.60942L16.9949 9.67672L17.024 9.684ZM16.9975 9.48222L17.0223 9.49914L17.0223 9.4991L16.9975 9.48222ZM17.048 9.408L17.0728 9.42488L17.073 9.42464L17.048 9.408ZM17.006 9.048L17.0298 9.02971L16.9856 8.97219L16.9763 9.04416L17.006 9.048ZM16.8477 9.02103L16.8733 9.03672V9.03672L16.8477 9.02103ZM16.904 8.91L16.8761 8.89876L16.8756 8.90051L16.904 8.91ZM16.844 8.592L16.8658 8.57142L16.8244 8.52744L16.8144 8.58707L16.844 8.592ZM16.8309 8.67692L16.8604 8.68229L16.8606 8.68129L16.8309 8.67692ZM16.8309 8.67693L16.8014 8.67156L16.8012 8.67257L16.8309 8.67693ZM16.742 8.844L16.7331 8.874H16.742V8.844ZM16.7691 8.51058L16.7946 8.52633L16.7947 8.52624L16.7691 8.51058ZM16.778 8.496L16.8047 8.51236L16.807 8.50363L16.778 8.496ZM16.718 8.292L16.7392 8.27079L16.704 8.23555L16.6893 8.28318L16.718 8.292ZM16.598 8.448L16.6066 8.41923L16.6053 8.4189L16.598 8.448ZM16.61 8.046L16.6312 8.02479L16.6018 7.99535L16.5832 8.03258L16.61 8.046ZM16.466 8.076L16.4366 8.06985L16.4364 8.07107L16.466 8.076ZM16.52 7.818L16.5494 7.82415L16.5569 7.788H16.52V7.818ZM16.448 7.818L16.4183 7.81416L16.4139 7.848H16.448V7.818ZM16.472 7.632L16.5018 7.63584L16.5061 7.602H16.472V7.632ZM15.518 7.632V7.602H15.4839L15.4883 7.63584L15.518 7.632ZM15.542 7.818V7.848H15.5761L15.5718 7.81416L15.542 7.818ZM15.476 7.818V7.788H15.4401L15.4465 7.82337L15.476 7.818ZM15.524 8.082L15.555 8.08458L15.5535 8.07663L15.524 8.082ZM15.386 8.046L15.4126 8.03203L15.3936 7.99599L15.3648 8.02479L15.386 8.046ZM15.374 8.244L15.3517 8.2641L15.3528 8.26521L15.374 8.244ZM15.398 8.448L15.3907 8.41886L15.3894 8.41926L15.398 8.448ZM15.278 8.292L15.3068 8.28348L15.289 8.22362L15.2534 8.27487L15.278 8.292ZM15.218 8.496L15.1916 8.51039L15.1925 8.51174L15.218 8.496ZM15.2284 8.51277L15.2028 8.52852L15.2029 8.52863L15.2284 8.51277ZM15.254 8.844V8.87562L15.2635 8.87246L15.254 8.844ZM15.1651 8.67693L15.1948 8.67257V8.67257L15.1651 8.67693ZM15.152 8.592L15.1816 8.58707L15.1719 8.52894L15.1306 8.57097L15.152 8.592ZM15.086 8.91L15.058 8.92077L15.0581 8.92087L15.086 8.91ZM15.1405 9.01375L15.1661 8.99817V8.99817L15.1405 9.01375ZM14.99 9.048L15.0198 9.04403L15.0102 8.97253L14.9662 9.02971L14.99 9.048ZM14.948 9.402L14.9731 9.38549L14.9723 9.38435L14.948 9.402ZM14.9787 9.44856L14.9536 9.46505L14.9536 9.46506L14.9787 9.44856ZM14.966 9.684L14.9949 9.67605L14.9758 9.60642L14.94 9.66912L14.966 9.684ZM14.942 9.948H14.9723L14.9718 9.94404L14.942 9.948ZM15.0155 10.0703L15.0357 10.0482V10.0482L15.0155 10.0703ZM15.602 7.626L15.5721 7.62839L15.5743 7.656H15.602V7.626ZM15.59 7.476V7.446H15.5575L15.5601 7.47839L15.59 7.476ZM16.382 7.626V7.656H16.4086L16.4118 7.62957L16.382 7.626ZM16.4 7.476L16.4298 7.47957L16.4338 7.446H16.4V7.476ZM15.722 7.314V7.284H15.6884L15.6922 7.31744L15.722 7.314ZM15.74 7.47L15.7102 7.47344L15.7133 7.5H15.74V7.47ZM16.262 7.314L16.292 7.31515L16.2932 7.284H16.262V7.314ZM16.256 7.47V7.5H16.2849L16.286 7.47115L16.256 7.47ZM17.72 14.07V14.1L17.7299 14.0417L17.72 14.07ZM14.33 14.07L14.3201 14.0417L14.33 14.1V14.07ZM14.57 12.312H14.6V12.3022L14.5942 12.2942L14.57 12.312ZM14.42 12.108V12.078H14.3607L14.3958 12.1258L14.42 12.108ZM17.576 12.108L17.5998 12.1262L17.6367 12.078H17.576V12.108ZM17.42 12.312L17.3962 12.2938L17.39 12.3018V12.312H17.42ZM15.86 7.308C15.89 7.30727 15.89 7.30728 15.89 7.30728C15.89 7.30728 15.89 7.30729 15.89 7.30729C15.89 7.3073 15.89 7.3073 15.89 7.30729C15.89 7.30729 15.89 7.30726 15.89 7.30723C15.89 7.30716 15.89 7.30703 15.89 7.30685C15.89 7.30648 15.89 7.30589 15.89 7.30509C15.89 7.30349 15.89 7.30107 15.89 7.29794C15.8901 7.29167 15.8905 7.2826 15.8913 7.27165C15.8929 7.24961 15.8964 7.22066 15.904 7.19194C15.9117 7.16289 15.923 7.13621 15.9389 7.11698C15.954 7.09859 15.9731 7.08707 15.9993 7.08597L15.9968 7.02603C15.951 7.02793 15.9168 7.04941 15.8925 7.07883C15.869 7.10741 15.8548 7.14336 15.846 7.17656C15.8371 7.21009 15.8332 7.24301 15.8314 7.26729C15.8305 7.2795 15.8302 7.28969 15.83 7.2969C15.83 7.3005 15.83 7.30337 15.83 7.30538C15.83 7.30639 15.83 7.30718 15.83 7.30774C15.83 7.30802 15.83 7.30825 15.83 7.30841C15.83 7.3085 15.83 7.30856 15.83 7.30862C15.83 7.30864 15.83 7.30867 15.83 7.30869C15.83 7.3087 15.83 7.30871 15.83 7.30871C15.83 7.30872 15.83 7.30873 15.86 7.308ZM16.13 7.278H15.86V7.338H16.13V7.278ZM15.998 7.086C16.0218 7.086 16.0392 7.09625 16.0534 7.11408C16.0684 7.13291 16.0793 7.15969 16.0867 7.18928C16.094 7.21846 16.0973 7.24806 16.0989 7.27064C16.0996 7.28186 16.0999 7.29118 16.1 7.29763C16.1001 7.30085 16.1001 7.30335 16.1001 7.305C16.1 7.30583 16.1 7.30644 16.1 7.30683C16.1 7.30702 16.1 7.30716 16.1 7.30723C16.1 7.30727 16.1 7.3073 16.1 7.3073C16.1 7.30731 16.1 7.30731 16.1 7.30731C16.1 7.3073 16.1 7.3073 16.1 7.3073C16.1 7.30729 16.1 7.30729 16.13 7.308C16.16 7.30871 16.16 7.3087 16.16 7.30869C16.16 7.30869 16.16 7.30868 16.16 7.30867C16.16 7.30865 16.16 7.30863 16.16 7.3086C16.16 7.30855 16.16 7.30848 16.16 7.3084C16.16 7.30824 16.16 7.30801 16.16 7.30773C16.16 7.30716 16.16 7.30636 16.1601 7.30534C16.1601 7.3033 16.1601 7.30038 16.16 7.29671C16.1599 7.28938 16.1596 7.27901 16.1587 7.26661C16.1571 7.24193 16.1533 7.20853 16.1449 7.17472C16.1365 7.14131 16.123 7.10509 16.1003 7.07667C16.0768 7.04725 16.0432 7.026 15.998 7.026V7.086ZM15.14 10.578V10.248H15.08V10.578H15.14ZM16.886 10.548H15.11V10.608H16.886V10.548ZM16.856 10.248V10.578H16.916V10.248H16.856ZM16.9611 10.0494C16.9168 10.0908 16.8597 10.1434 16.856 10.2469L16.916 10.2491C16.9188 10.1719 16.9584 10.1341 17.0021 10.0932L16.9611 10.0494ZM17.024 9.948C17.024 9.98867 17.0003 10.0126 16.9611 10.0494L17.0021 10.0932C17.0385 10.0591 17.084 10.0183 17.084 9.948H17.024ZM16.9988 9.70022C17.0208 9.73443 17.0285 9.79267 17.0293 9.84791C17.0296 9.87452 17.0284 9.8987 17.027 9.91625C17.0263 9.925 17.0256 9.93205 17.0251 9.93687C17.0249 9.93928 17.0246 9.94112 17.0245 9.94234C17.0244 9.94295 17.0244 9.9434 17.0243 9.94369C17.0243 9.94383 17.0243 9.94393 17.0243 9.94399C17.0243 9.94402 17.0243 9.94404 17.0243 9.94404C17.0243 9.94405 17.0243 9.94405 17.0243 9.94405C17.0243 9.94405 17.0243 9.94404 17.0243 9.94404C17.0243 9.94404 17.0243 9.94404 17.054 9.948C17.0838 9.95196 17.0838 9.95196 17.0838 9.95195C17.0838 9.95195 17.0838 9.95194 17.0838 9.95194C17.0838 9.95192 17.0838 9.95191 17.0838 9.95189C17.0838 9.95185 17.0838 9.95181 17.0838 9.95175C17.0838 9.95164 17.0838 9.95148 17.0838 9.95128C17.0839 9.95088 17.084 9.95031 17.0841 9.94957C17.0842 9.94811 17.0845 9.94601 17.0848 9.94333C17.0853 9.93798 17.0861 9.93031 17.0868 9.92088C17.0883 9.90205 17.0897 9.87598 17.0893 9.84709C17.0885 9.79133 17.0813 9.71757 17.0493 9.66778L16.9988 9.70022ZM16.814 9.78C16.814 9.81102 16.8231 9.84006 16.8407 9.86106C16.8588 9.88267 16.8861 9.89531 16.9168 9.88978C16.9462 9.88448 16.9729 9.86366 16.9952 9.83176C17.0176 9.79958 17.0376 9.75346 17.0531 9.69128L16.9949 9.67672C16.9805 9.73454 16.9629 9.77317 16.946 9.79743C16.9289 9.82197 16.9143 9.82927 16.9062 9.83072C16.8995 9.83194 16.8929 9.82995 16.8867 9.8225C16.8799 9.81444 16.874 9.79998 16.874 9.78H16.814ZM16.9727 9.4653C16.9213 9.54068 16.8819 9.59829 16.8556 9.64622C16.8291 9.69449 16.814 9.73622 16.814 9.78H16.874C16.874 9.75078 16.8838 9.7195 16.9082 9.67507C16.9327 9.63032 16.9701 9.57554 17.0223 9.49914L16.9727 9.4653ZM17.0232 9.39112L16.9727 9.46534L17.0223 9.4991L17.0728 9.42488L17.0232 9.39112ZM16.9822 9.06629C17.0074 9.09903 17.029 9.16472 17.0378 9.23401C17.042 9.26796 17.043 9.30111 17.0403 9.32946C17.0375 9.35851 17.031 9.37938 17.0231 9.39136L17.073 9.42464C17.089 9.40062 17.0968 9.36824 17.1 9.33523C17.1033 9.30151 17.102 9.26379 17.0973 9.22649C17.088 9.15328 17.0646 9.07497 17.0298 9.02971L16.9822 9.06629ZM16.874 9.348C16.8994 9.348 16.9224 9.341 16.9423 9.32584C16.9617 9.31108 16.9762 9.29008 16.9875 9.26523C17.0099 9.21638 17.0238 9.14469 17.0358 9.05184L16.9763 9.04416C16.9642 9.13731 16.9511 9.20062 16.933 9.24027C16.9241 9.25967 16.9149 9.2713 16.906 9.2781C16.8976 9.2845 16.8877 9.288 16.874 9.288V9.348ZM16.754 9.198C16.754 9.2472 16.7655 9.28539 16.7885 9.31157C16.812 9.33831 16.8436 9.348 16.874 9.348V9.288C16.8564 9.288 16.843 9.28269 16.8335 9.27193C16.8236 9.26061 16.814 9.2388 16.814 9.198H16.754ZM16.8222 9.00534C16.7899 9.05794 16.754 9.11543 16.754 9.198H16.814C16.814 9.13432 16.8405 9.09012 16.8733 9.03672L16.8222 9.00534ZM16.8756 8.90051C16.8627 8.93897 16.8432 8.97106 16.8222 9.00534L16.8733 9.03672C16.894 9.00304 16.9172 8.96541 16.9325 8.91949L16.8756 8.90051ZM16.8222 8.61258C16.8945 8.68926 16.9156 8.80102 16.8762 8.89878L16.9318 8.92122C16.98 8.80173 16.9542 8.66514 16.8658 8.57142L16.8222 8.61258ZM16.8606 8.68129C16.8643 8.65616 16.8684 8.62818 16.8736 8.59693L16.8144 8.58707C16.8091 8.61895 16.8049 8.64746 16.8012 8.67256L16.8606 8.68129ZM16.8604 8.6823L16.8604 8.68229L16.8014 8.67156L16.8014 8.67157L16.8604 8.6823ZM16.742 8.874C16.7618 8.874 16.7805 8.87022 16.7968 8.85973C16.8132 8.84919 16.8239 8.83395 16.8315 8.81695C16.8456 8.78522 16.8522 8.73827 16.8606 8.6813L16.8012 8.67257C16.7922 8.7337 16.7866 8.77028 16.7767 8.79256C16.7722 8.80256 16.768 8.80695 16.7644 8.80928C16.7607 8.81166 16.7544 8.814 16.742 8.814V8.874ZM16.7436 8.49483C16.7202 8.53274 16.6733 8.60836 16.6523 8.68109C16.6418 8.7173 16.6364 8.75704 16.6471 8.79254C16.6586 8.83059 16.6872 8.85903 16.7335 8.87276L16.7505 8.81524C16.7214 8.80659 16.7096 8.79181 16.7046 8.77519C16.6988 8.75603 16.7007 8.72966 16.7099 8.69775C16.7283 8.63423 16.7705 8.56551 16.7946 8.52633L16.7436 8.49483ZM16.7524 8.48034L16.7435 8.49491L16.7947 8.52624L16.8036 8.51166L16.7524 8.48034ZM16.718 8.292C16.6968 8.31321 16.6968 8.31321 16.6968 8.3132C16.6968 8.3132 16.6968 8.31319 16.6968 8.31318C16.6968 8.31318 16.6968 8.31317 16.6968 8.31316C16.6967 8.31315 16.6967 8.31315 16.6967 8.31314C16.6967 8.31314 16.6968 8.31316 16.6968 8.3132C16.6969 8.31328 16.697 8.31344 16.6973 8.31369C16.6977 8.31417 16.6985 8.31498 16.6995 8.3161C16.7015 8.31833 16.7044 8.32177 16.708 8.32629C16.715 8.33537 16.7242 8.34857 16.7325 8.36488C16.7493 8.39769 16.7615 8.4409 16.749 8.48837L16.807 8.50363C16.8245 8.4371 16.8068 8.37831 16.786 8.33762C16.7756 8.31718 16.7641 8.30075 16.7553 8.2894C16.7508 8.2837 16.747 8.27921 16.7442 8.27608C16.7428 8.27451 16.7416 8.27328 16.7408 8.27239C16.7404 8.27195 16.74 8.27159 16.7398 8.27132C16.7396 8.27119 16.7395 8.27108 16.7394 8.27099C16.7394 8.27094 16.7393 8.2709 16.7393 8.27087C16.7393 8.27085 16.7393 8.27084 16.7393 8.27082C16.7393 8.27082 16.7393 8.27081 16.7392 8.2708C16.7392 8.2708 16.7392 8.27079 16.718 8.292ZM16.5894 8.47673C16.605 8.48141 16.6225 8.48549 16.6399 8.4828C16.6595 8.47977 16.6746 8.46901 16.6864 8.45338C16.6974 8.4389 16.7065 8.41921 16.7155 8.39531C16.7247 8.37099 16.7347 8.33981 16.7467 8.30082L16.6893 8.28318C16.6773 8.32219 16.6678 8.35175 16.6594 8.37412C16.6508 8.39692 16.6441 8.40985 16.6386 8.41712C16.634 8.42324 16.6317 8.42335 16.6307 8.42351C16.6275 8.42401 16.6211 8.42359 16.6066 8.41926L16.5894 8.47673ZM16.6008 8.22279C16.5556 8.26802 16.5272 8.32041 16.5217 8.36724C16.5189 8.39085 16.5218 8.41482 16.5336 8.43527C16.5457 8.45636 16.5655 8.4708 16.5907 8.4771L16.6053 8.4189C16.5945 8.4162 16.5889 8.41114 16.5856 8.40542C16.582 8.39906 16.5796 8.3889 16.5813 8.37426C16.5848 8.34459 16.6045 8.30398 16.6432 8.26521L16.6008 8.22279ZM16.5888 8.06721C16.6397 8.11813 16.6406 8.18297 16.6008 8.22279L16.6432 8.26521C16.7114 8.19703 16.7003 8.09387 16.6312 8.02479L16.5888 8.06721ZM16.4364 8.07107C16.4323 8.09564 16.4369 8.11965 16.4519 8.13772C16.4671 8.15594 16.4895 8.16411 16.5125 8.16296C16.5578 8.1607 16.6044 8.12435 16.6368 8.05942L16.5832 8.03258C16.5556 8.08765 16.5243 8.1023 16.5095 8.10304C16.5026 8.10338 16.4995 8.10106 16.4981 8.0994C16.4966 8.0976 16.4937 8.09236 16.4956 8.08093L16.4364 8.07107ZM16.4907 7.81185L16.4367 8.06985L16.4954 8.08215L16.5494 7.82415L16.4907 7.81185ZM16.448 7.848L16.52 7.848V7.788L16.448 7.788V7.848ZM16.4423 7.62816L16.4183 7.81416L16.4778 7.82184L16.5018 7.63584L16.4423 7.62816ZM15.518 7.662H16.472V7.602H15.518V7.662ZM15.5718 7.81416L15.5478 7.62816L15.4883 7.63584L15.5123 7.82184L15.5718 7.81416ZM15.476 7.848L15.542 7.848V7.788L15.476 7.788V7.848ZM15.5535 8.07663L15.5055 7.81263L15.4465 7.82337L15.4945 8.08737L15.5535 8.07663ZM15.3595 8.05997C15.3906 8.1192 15.4299 8.15757 15.471 8.16345C15.4933 8.16663 15.5145 8.15973 15.53 8.14353C15.5447 8.12818 15.552 8.10697 15.5539 8.08449L15.4941 8.07951C15.493 8.09303 15.4891 8.09957 15.4867 8.10203C15.4851 8.10365 15.4835 8.10462 15.4795 8.10405C15.4681 8.10243 15.4414 8.0868 15.4126 8.03203L15.3595 8.05997ZM15.3963 8.22393C15.3742 8.19941 15.3655 8.17269 15.3672 8.14695C15.3689 8.12092 15.3815 8.09299 15.4072 8.06721L15.3648 8.02479C15.3306 8.05901 15.3101 8.10008 15.3073 8.14305C15.3045 8.18631 15.3198 8.22859 15.3517 8.26407L15.3963 8.22393ZM15.4053 8.4771C15.4305 8.4708 15.4504 8.45636 15.4625 8.43527C15.4742 8.41482 15.4771 8.39085 15.4743 8.36724C15.4688 8.32041 15.4405 8.26802 15.3952 8.22279L15.3528 8.26521C15.3916 8.30398 15.4112 8.34459 15.4147 8.37426C15.4164 8.3889 15.4141 8.39906 15.4104 8.40542C15.4072 8.41114 15.4015 8.4162 15.3907 8.4189L15.4053 8.4771ZM15.2493 8.30052C15.2613 8.34105 15.2713 8.37305 15.2805 8.39773C15.2895 8.42194 15.2987 8.44171 15.3099 8.45603C15.3223 8.47177 15.3378 8.48168 15.3575 8.48382C15.3744 8.48567 15.3916 8.48124 15.4066 8.47673L15.3894 8.41926C15.3744 8.42376 15.3676 8.42458 15.364 8.42418C15.363 8.42407 15.3612 8.42423 15.3571 8.41897C15.3519 8.41229 15.3453 8.39981 15.3367 8.37677C15.3283 8.3542 15.3188 8.32395 15.3068 8.28348L15.2493 8.30052ZM15.2444 8.48163C15.2401 8.47377 15.2383 8.46079 15.2417 8.44152C15.2451 8.42277 15.2526 8.40191 15.2618 8.3817C15.2709 8.36169 15.2812 8.34343 15.2893 8.3301C15.2933 8.32347 15.2967 8.31813 15.2991 8.31449C15.3003 8.31267 15.3012 8.31128 15.3018 8.31037C15.3021 8.30991 15.3023 8.30958 15.3025 8.30937C15.3026 8.30927 15.3026 8.30919 15.3026 8.30915C15.3026 8.30913 15.3027 8.30912 15.3027 8.30912C15.3027 8.30912 15.3027 8.30912 15.3027 8.30912C15.3027 8.30912 15.3027 8.30912 15.3026 8.30912C15.3026 8.30913 15.3026 8.30913 15.278 8.292C15.2534 8.27487 15.2534 8.27487 15.2534 8.27488C15.2534 8.27488 15.2534 8.27489 15.2534 8.27489C15.2534 8.2749 15.2534 8.27492 15.2533 8.27493C15.2533 8.27496 15.2533 8.275 15.2533 8.27505C15.2532 8.27514 15.2531 8.27527 15.253 8.27542C15.2528 8.27574 15.2525 8.27619 15.2521 8.27676C15.2513 8.2779 15.2502 8.27954 15.2489 8.28163C15.2461 8.28579 15.2423 8.29175 15.2379 8.29908C15.2291 8.31369 15.2176 8.33406 15.2072 8.3568C15.1969 8.37934 15.1872 8.40535 15.1827 8.43105C15.1782 8.45621 15.178 8.48523 15.1917 8.51037L15.2444 8.48163ZM15.2539 8.49703L15.2436 8.48026L15.1925 8.51174L15.2028 8.52852L15.2539 8.49703ZM15.2635 8.87246C15.309 8.85729 15.337 8.82861 15.3486 8.79104C15.3595 8.75569 15.3545 8.71652 15.3444 8.68079C15.324 8.60923 15.2777 8.53532 15.2538 8.49692L15.2029 8.52863C15.2276 8.56838 15.269 8.63517 15.2867 8.69722C15.2955 8.72829 15.2972 8.75416 15.2913 8.77337C15.286 8.79038 15.2738 8.80578 15.2445 8.81554L15.2635 8.87246ZM15.1354 8.6813C15.1438 8.73827 15.1504 8.78522 15.1646 8.81695C15.1721 8.83395 15.1828 8.84919 15.1992 8.85973C15.2155 8.87022 15.2342 8.874 15.254 8.874V8.814C15.2417 8.814 15.2354 8.81166 15.2317 8.80928C15.2281 8.80695 15.2238 8.80256 15.2194 8.79256C15.2095 8.77028 15.2038 8.7337 15.1948 8.67257L15.1354 8.6813ZM15.1224 8.59693C15.1276 8.62818 15.1317 8.65616 15.1354 8.6813L15.1948 8.67257C15.1911 8.64746 15.1869 8.61895 15.1816 8.58707L15.1224 8.59693ZM15.114 8.89923C15.076 8.80043 15.0992 8.68853 15.1734 8.61303L15.1306 8.57097C15.0399 8.66326 15.0116 8.80002 15.058 8.92077L15.114 8.89923ZM15.1661 8.99817C15.1467 8.96625 15.1281 8.93551 15.114 8.89913L15.0581 8.92087C15.0744 8.96286 15.0957 8.99784 15.1149 9.02933L15.1661 8.99817ZM15.236 9.198C15.236 9.1122 15.1998 9.05354 15.1661 8.99817L15.1149 9.02933C15.1489 9.08533 15.176 9.13087 15.176 9.198H15.236ZM15.122 9.348C15.1526 9.348 15.1834 9.3381 15.2054 9.31049C15.2265 9.28416 15.236 9.24621 15.236 9.198H15.176C15.176 9.23979 15.1675 9.26184 15.1586 9.27301C15.1507 9.2829 15.1394 9.288 15.122 9.288V9.348ZM14.9603 9.05196C14.9723 9.14186 14.9862 9.21337 15.0084 9.26281C15.0197 9.28788 15.034 9.30936 15.0532 9.32461C15.073 9.34034 15.0962 9.348 15.122 9.348V9.288C15.1089 9.288 15.099 9.28441 15.0905 9.27764C15.0814 9.27039 15.0721 9.25812 15.0631 9.23819C15.0449 9.19763 15.0318 9.13414 15.0198 9.04403L14.9603 9.05196ZM14.9723 9.38435C14.965 9.37428 14.9586 9.35514 14.9557 9.32685C14.953 9.29943 14.954 9.26689 14.9583 9.2333C14.967 9.16476 14.9886 9.09904 15.0138 9.06629L14.9662 9.02971C14.9314 9.07496 14.908 9.15324 14.8988 9.2257C14.894 9.26261 14.8928 9.29982 14.896 9.33278C14.8992 9.36486 14.9071 9.39672 14.9238 9.41964L14.9723 9.38435ZM15.0037 9.43206L14.9731 9.3855L14.923 9.4185L14.9536 9.46505L15.0037 9.43206ZM15.176 9.78C15.176 9.73413 15.1607 9.69025 15.1324 9.63725C15.1043 9.58462 15.0615 9.51976 15.0037 9.43205L14.9536 9.46506C15.0121 9.5538 15.053 9.61592 15.0795 9.66552C15.1058 9.71475 15.116 9.74837 15.116 9.78H15.176ZM14.9371 9.69195C14.9542 9.75401 14.9749 9.79993 14.9975 9.83192C15.0199 9.86354 15.0463 9.88442 15.0753 9.88976C15.1061 9.8954 15.1329 9.88241 15.1505 9.86061C15.1675 9.83956 15.176 9.81066 15.176 9.78H15.116C15.116 9.80034 15.1103 9.81494 15.1038 9.82295C15.098 9.83021 15.0922 9.83185 15.0862 9.83074C15.0785 9.82933 15.064 9.82209 15.0465 9.79726C15.0292 9.77282 15.0109 9.73399 14.9949 9.67605L14.9371 9.69195ZM14.942 9.948C14.9718 9.94404 14.9718 9.94404 14.9718 9.94404C14.9718 9.94404 14.9718 9.94405 14.9718 9.94405C14.9718 9.94405 14.9718 9.94404 14.9718 9.94404C14.9718 9.94403 14.9718 9.94401 14.9717 9.94398C14.9717 9.94392 14.9717 9.94382 14.9717 9.94367C14.9717 9.94338 14.9716 9.94292 14.9715 9.94231C14.9714 9.94108 14.9712 9.93922 14.9709 9.9368C14.9704 9.93196 14.9696 9.92488 14.9689 9.9161C14.9675 9.89849 14.966 9.87422 14.966 9.8475C14.966 9.8207 14.9675 9.79198 14.9717 9.76534C14.9759 9.73835 14.9826 9.71539 14.9921 9.69888L14.94 9.66912C14.9254 9.69461 14.9171 9.72565 14.9124 9.75604C14.9076 9.78677 14.906 9.8188 14.906 9.8475C14.906 9.87628 14.9076 9.90226 14.9091 9.92103C14.9099 9.93043 14.9107 9.93807 14.9113 9.9434C14.9116 9.94607 14.9118 9.94816 14.912 9.94961C14.9121 9.95033 14.9121 9.9509 14.9122 9.95129C14.9122 9.95149 14.9122 9.95165 14.9123 9.95176C14.9123 9.95181 14.9123 9.95186 14.9123 9.95189C14.9123 9.95191 14.9123 9.95193 14.9123 9.95194C14.9123 9.95194 14.9123 9.95195 14.9123 9.95195C14.9123 9.95196 14.9123 9.95196 14.942 9.948ZM15.0357 10.0482C14.9959 10.0117 14.972 9.98789 14.972 9.948H14.912C14.912 10.018 14.9586 10.0588 14.9952 10.0924L15.0357 10.0482ZM15.14 10.248C15.14 10.1429 15.0811 10.0898 15.0357 10.0482L14.9952 10.0924C15.0402 10.1337 15.08 10.171 15.08 10.248H15.14ZM15.6319 7.62361L15.6199 7.47361L15.5601 7.47839L15.5721 7.62839L15.6319 7.62361ZM16.382 7.596H15.602V7.656H16.382V7.596ZM16.3702 7.47243L16.3522 7.62243L16.4118 7.62957L16.4298 7.47957L16.3702 7.47243ZM15.59 7.506H16.4V7.446H15.59V7.506ZM15.6922 7.31744L15.7102 7.47344L15.7698 7.46656L15.7518 7.31056L15.6922 7.31744ZM16.262 7.284H15.722V7.344H16.262V7.284ZM16.286 7.47115L16.292 7.31515L16.232 7.31285L16.226 7.46885L16.286 7.47115ZM15.74 7.5H16.256V7.44H15.74V7.5ZM17.7299 14.0417C17.6739 14.0221 17.6023 13.9807 17.5451 13.9292C17.4866 13.8766 17.45 13.8197 17.45 13.77H17.39C17.39 13.8463 17.4434 13.9184 17.5049 13.9738C17.5677 14.0303 17.6461 14.0759 17.7101 14.0983L17.7299 14.0417ZM14.33 14.1H17.72V14.04H14.33V14.1ZM14.54 13.77C14.54 13.8238 14.5141 13.8817 14.472 13.9323C14.43 13.9827 14.3743 14.0227 14.3201 14.0417L14.3399 14.0983C14.4057 14.0753 14.4701 14.0283 14.5181 13.9707C14.5659 13.9133 14.6 13.8422 14.6 13.77H14.54ZM14.54 12.312V13.77H14.6V12.312H14.54ZM14.3958 12.1258L14.5458 12.3298L14.5942 12.2942L14.4442 12.0902L14.3958 12.1258ZM17.576 12.078H14.42V12.138H17.576V12.078ZM17.4438 12.3302L17.5998 12.1262L17.5522 12.0898L17.3962 12.2938L17.4438 12.3302ZM17.45 13.77V12.312H17.39V13.77H17.45Z" fill="black"/>
<path fill-rule="evenodd" clip-rule="evenodd" d="M15.188 12.756H14.972V13.746H15.188V12.756ZM17.012 12.756H16.796V13.746H17.012V12.756Z" fill="white"/>
<path d="M14.972 12.756V12.726L14.942 12.756H14.972ZM15.188 12.756H15.218L15.188 12.726V12.756ZM14.972 13.746H14.942L14.972 13.776V13.746ZM15.188 13.746V13.776L15.218 13.746H15.188ZM16.796 12.756V12.726L16.766 12.756H16.796ZM17.012 12.756H17.042L17.012 12.726V12.756ZM16.796 13.746H16.766L16.796 13.776V13.746ZM17.012 13.746V13.776L17.042 13.746H17.012ZM14.972 12.786H15.188V12.726H14.972V12.786ZM15.002 13.746V12.756H14.942V13.746H15.002ZM15.188 13.716H14.972V13.776H15.188V13.716ZM15.158 12.756V13.746H15.218V12.756H15.158ZM16.796 12.786H17.012V12.726H16.796V12.786ZM16.826 13.746V12.756H16.766V13.746H16.826ZM17.012 13.716H16.796V13.776H17.012V13.716ZM16.982 12.756V13.746H17.042V12.756H16.982Z" fill="black"/>
<path d="M14.36 10.452V12.108H17.6V10.452C17.5241 10.4797 17.466 10.5422 17.444 10.62V11.328H14.522V10.62C14.522 10.62 14.486 10.5 14.354 10.452H14.36Z" fill="white" stroke="black" stroke-width="0.06"/>
<path d="M17.156 14.07C17.048 14.028 16.82 13.896 16.82 13.77V12.138C16.844 12.048 16.964 11.994 17.042 11.934H14.9C15.002 11.994 15.116 12.036 15.158 12.138V13.77C15.158 13.896 14.978 14.028 14.87 14.07H17.156Z" fill="white" stroke="black" stroke-width="0.06"/>
<path fill-rule="evenodd" clip-rule="evenodd" d="M17.444 10.776V11.952H14.522V10.782H14.822V10.662H17.15V10.776H17.444ZM16.442 13.77C16.442 13.896 16.592 14.028 16.7 14.07H15.296C15.398 14.028 15.554 13.896 15.554 13.77V12.372L15.464 12.252H16.526L16.442 12.378V13.77Z" fill="white"/>
<path d="M17.444 11.952V11.982H17.474V11.952H17.444ZM17.444 10.776H17.474V10.746H17.444V10.776ZM14.522 11.952H14.492V11.982H14.522V11.952ZM14.522 10.782V10.752H14.492V10.782H14.522ZM14.822 10.782V10.812H14.852V10.782H14.822ZM14.822 10.662V10.632H14.792V10.662H14.822ZM17.15 10.662H17.18V10.632H17.15V10.662ZM17.15 10.776H17.12V10.806H17.15V10.776ZM16.7 14.07V14.1L16.7109 14.042L16.7 14.07ZM15.296 14.07L15.2846 14.0423L15.296 14.1V14.07ZM15.554 12.372H15.584V12.362L15.578 12.354L15.554 12.372ZM15.464 12.252V12.222H15.404L15.44 12.27L15.464 12.252ZM16.526 12.252L16.551 12.2686L16.5821 12.222H16.526V12.252ZM16.442 12.378L16.4171 12.3614L16.412 12.3689V12.378H16.442ZM17.474 11.952V10.776H17.414V11.952H17.474ZM14.522 11.982H17.444V11.922H14.522V11.982ZM14.492 10.782V11.952H14.552V10.782H14.492ZM14.822 10.752H14.522V10.812H14.822V10.752ZM14.792 10.662V10.782H14.852V10.662H14.792ZM17.15 10.632H14.822V10.692H17.15V10.632ZM17.18 10.776V10.662H17.12V10.776H17.18ZM17.444 10.746H17.15V10.806H17.444V10.746ZM16.7109 14.042C16.6615 14.0228 16.6007 13.9821 16.5523 13.9309C16.5035 13.8792 16.472 13.8217 16.472 13.77H16.412C16.412 13.8443 16.4556 13.9159 16.5087 13.9721C16.5624 14.0289 16.6305 14.0752 16.6892 14.098L16.7109 14.042ZM15.296 14.1H16.7V14.04H15.296V14.1ZM15.524 13.77C15.524 13.8214 15.4915 13.8787 15.4416 13.9307C15.3924 13.9821 15.3313 14.023 15.2846 14.0423L15.3075 14.0977C15.3627 14.075 15.4306 14.0289 15.4849 13.9723C15.5386 13.9163 15.584 13.8446 15.584 13.77H15.524ZM15.524 12.372V13.77H15.584V12.372H15.524ZM15.44 12.27L15.53 12.39L15.578 12.354L15.488 12.234L15.44 12.27ZM16.526 12.222H15.464V12.282H16.526V12.222ZM16.467 12.3946L16.551 12.2686L16.5011 12.2354L16.4171 12.3614L16.467 12.3946ZM16.472 13.77V12.378H16.412V13.77H16.472Z" fill="black"/>
<path d="M15.722 12.252H16.262V14.07H15.722V12.252Z" fill="white" stroke="black" stroke-width="0.06"/>
<path d="M16.544 11.85C16.544 11.73 16.892 11.724 17.072 11.622H14.912C15.092 11.724 15.434 11.73 15.434 11.85L15.506 12.084L16.406 12.12L16.544 11.85Z" fill="white" stroke="black" stroke-width="0.06" stroke-linejoin="bevel"/>
<path fill-rule="evenodd" clip-rule="evenodd" d="M17.36 10.086C17.36 10.086 17.066 10.122 17.066 10.458V10.176C16.976 10.176 16.964 10.284 16.964 10.578L15.026 10.572C15.026 10.29 15.026 10.17 14.918 10.17V11.1C15.14 11.184 15.296 11.46 15.296 11.46H16.688C16.688 11.46 16.844 11.184 17.066 11.1V11.628H17.282V10.776C17.282 10.776 17.192 10.776 17.192 10.626C17.192 10.482 17.246 10.38 17.36 10.386V10.086Z" fill="white"/>
<path d="M17.36 10.086H17.39V10.0521L17.3564 10.0562L17.36 10.086ZM17.066 10.176H17.096V10.146H17.066V10.176ZM16.964 10.578L16.9639 10.608L16.994 10.6081V10.578H16.964ZM15.026 10.572H14.996V10.6019L15.0259 10.602L15.026 10.572ZM14.918 10.17V10.14H14.888V10.17H14.918ZM14.918 11.1H14.888V11.1207L14.9074 11.1281L14.918 11.1ZM15.296 11.46L15.2699 11.4748L15.2785 11.49H15.296V11.46ZM16.688 11.46V11.49H16.7055L16.7141 11.4748L16.688 11.46ZM17.066 11.1H17.096V11.0566L17.0554 11.0719L17.066 11.1ZM17.066 11.628H17.036V11.658H17.066V11.628ZM17.282 11.628V11.658H17.312V11.628H17.282ZM17.282 10.776H17.312V10.746L17.282 10.746V10.776ZM17.36 10.386L17.3585 10.416L17.39 10.4176V10.386H17.36ZM17.096 10.458C17.096 10.3006 17.1641 10.2165 17.2301 10.1706C17.2638 10.1473 17.2976 10.1335 17.3231 10.1255C17.3357 10.1215 17.3462 10.1191 17.3534 10.1176C17.357 10.1169 17.3597 10.1164 17.3615 10.1161C17.3624 10.116 17.363 10.1159 17.3634 10.1158C17.3636 10.1158 17.3637 10.1158 17.3637 10.1158C17.3638 10.1158 17.3638 10.1158 17.3638 10.1158C17.3637 10.1158 17.3637 10.1158 17.3637 10.1158C17.3637 10.1158 17.3637 10.1158 17.3637 10.1158C17.3637 10.1158 17.3637 10.1158 17.36 10.086C17.3564 10.0562 17.3564 10.0562 17.3563 10.0562C17.3563 10.0562 17.3563 10.0562 17.3563 10.0562C17.3563 10.0562 17.3562 10.0562 17.3562 10.0562C17.3561 10.0563 17.356 10.0563 17.3559 10.0563C17.3557 10.0563 17.3554 10.0564 17.355 10.0564C17.3543 10.0565 17.3532 10.0567 17.352 10.0569C17.3494 10.0573 17.3459 10.0579 17.3414 10.0588C17.3325 10.0606 17.32 10.0636 17.3051 10.0682C17.2755 10.0775 17.2358 10.0937 17.1959 10.1214C17.115 10.1775 17.036 10.2794 17.036 10.458H17.096ZM17.036 10.176V10.458H17.096V10.176H17.036ZM16.994 10.578C16.994 10.4301 16.9972 10.3332 17.0106 10.2733C17.0172 10.2435 17.0256 10.227 17.034 10.218C17.0412 10.2103 17.0503 10.206 17.066 10.206V10.146C17.0367 10.146 17.0106 10.1552 16.9902 10.177C16.9711 10.1974 16.9596 10.2262 16.952 10.2602C16.9369 10.3278 16.934 10.4319 16.934 10.578H16.994ZM15.0259 10.602L16.9639 10.608L16.9641 10.548L15.0261 10.542L15.0259 10.602ZM14.918 10.2C14.939 10.2 14.9507 10.2055 14.9589 10.214C14.9683 10.2237 14.9769 10.2409 14.9832 10.2713C14.9959 10.3328 14.996 10.4293 14.996 10.572H15.056C15.056 10.4327 15.0562 10.3282 15.0419 10.2592C15.0347 10.2243 15.023 10.1939 15.002 10.1723C14.9799 10.1495 14.9511 10.14 14.918 10.14V10.2ZM14.948 11.1V10.17H14.888V11.1H14.948ZM15.296 11.46C15.3221 11.4452 15.3221 11.4452 15.3221 11.4452C15.3221 11.4452 15.3221 11.4452 15.3221 11.4452C15.3221 11.4452 15.3221 11.4452 15.3221 11.4451C15.3221 11.4451 15.322 11.445 15.322 11.4449C15.3219 11.4448 15.3217 11.4445 15.3216 11.4442C15.3212 11.4437 15.3207 11.4428 15.3201 11.4417C15.3188 11.4395 15.317 11.4364 15.3145 11.4324C15.3096 11.4243 15.3025 11.4129 15.2932 11.3989C15.2746 11.3711 15.2475 11.333 15.2133 11.2922C15.1453 11.2113 15.0468 11.1167 14.9286 11.0719L14.9074 11.1281C15.0112 11.1673 15.1017 11.2527 15.1673 11.3308C15.1998 11.3695 15.2256 11.4057 15.2432 11.4322C15.252 11.4454 15.2588 11.4562 15.2633 11.4636C15.2655 11.4673 15.2672 11.4701 15.2683 11.472C15.2689 11.473 15.2693 11.4737 15.2696 11.4742C15.2697 11.4744 15.2698 11.4746 15.2699 11.4747C15.2699 11.4747 15.2699 11.4747 15.2699 11.4748C15.2699 11.4748 15.2699 11.4748 15.2699 11.4748C15.2699 11.4748 15.2699 11.4748 15.2699 11.4748C15.2699 11.4748 15.2699 11.4748 15.296 11.46ZM16.688 11.43H15.296V11.49H16.688V11.43ZM17.0554 11.0719C16.9372 11.1167 16.8387 11.2113 16.7708 11.2922C16.7366 11.333 16.7095 11.3711 16.6909 11.3989C16.6816 11.4129 16.6744 11.4243 16.6695 11.4324C16.6671 11.4364 16.6652 11.4395 16.664 11.4417C16.6633 11.4428 16.6628 11.4437 16.6625 11.4442C16.6623 11.4445 16.6622 11.4448 16.6621 11.4449C16.662 11.445 16.662 11.4451 16.662 11.4451C16.662 11.4452 16.6619 11.4452 16.6619 11.4452C16.6619 11.4452 16.6619 11.4452 16.6619 11.4452C16.6619 11.4452 16.6619 11.4452 16.688 11.46C16.7141 11.4748 16.7141 11.4748 16.7141 11.4748C16.7141 11.4748 16.7141 11.4748 16.7141 11.4748C16.7141 11.4748 16.7141 11.4748 16.7141 11.4748C16.7142 11.4747 16.7142 11.4747 16.7142 11.4747C16.7143 11.4746 16.7144 11.4744 16.7145 11.4742C16.7148 11.4737 16.7152 11.473 16.7157 11.472C16.7168 11.4701 16.7185 11.4673 16.7208 11.4636C16.7253 11.4562 16.732 11.4454 16.7408 11.4322C16.7585 11.4057 16.7843 11.3695 16.8168 11.3308C16.8823 11.2527 16.9728 11.1673 17.0766 11.1281L17.0554 11.0719ZM17.096 11.628V11.1H17.036V11.628H17.096ZM17.282 11.598H17.066V11.658H17.282V11.598ZM17.252 10.776V11.628H17.312V10.776H17.252ZM17.162 10.626C17.162 10.7072 17.1867 10.7543 17.2178 10.7803C17.2329 10.7929 17.2482 10.7993 17.2599 10.8026C17.2658 10.8042 17.2708 10.805 17.2746 10.8055C17.2765 10.8057 17.2781 10.8058 17.2794 10.8059C17.28 10.806 17.2805 10.806 17.281 10.806C17.2812 10.806 17.2814 10.806 17.2816 10.806C17.2817 10.806 17.2817 10.806 17.2818 10.806C17.2819 10.806 17.2819 10.806 17.2819 10.806C17.2819 10.806 17.282 10.806 17.282 10.806C17.282 10.806 17.282 10.806 17.282 10.776C17.282 10.746 17.2821 10.746 17.2821 10.746C17.2821 10.746 17.2821 10.746 17.2821 10.746C17.2822 10.746 17.2822 10.746 17.2822 10.746C17.2823 10.746 17.2823 10.746 17.2824 10.746C17.2825 10.746 17.2825 10.746 17.2826 10.746C17.2827 10.746 17.2827 10.746 17.2827 10.746C17.2826 10.746 17.2823 10.746 17.2817 10.7459C17.2806 10.7458 17.2786 10.7455 17.276 10.7447C17.2709 10.7433 17.2636 10.7404 17.2562 10.7342C17.2424 10.7227 17.222 10.6948 17.222 10.626H17.162ZM17.3616 10.356C17.2935 10.3525 17.2415 10.382 17.2081 10.4334C17.176 10.483 17.162 10.551 17.162 10.626H17.222C17.222 10.557 17.2351 10.502 17.2584 10.4661C17.2806 10.432 17.3125 10.4135 17.3585 10.416L17.3616 10.356ZM17.33 10.086V10.386H17.39V10.086H17.33Z" fill="black"/>
<path d="M14.918 10.458C14.918 10.122 14.624 10.086 14.624 10.086V10.386C14.738 10.38 14.792 10.482 14.792 10.626C14.792 10.776 14.702 10.776 14.702 10.776V11.628H14.918V10.458Z" fill="white" stroke="black" stroke-width="0.06"/>
<path d="M15.488 8.18601H16.52V8.12601H15.488V8.18601ZM15.368 8.51001H16.628V8.45001H15.368V8.51001ZM15.248 8.90001H16.742V8.84001H15.248V8.90001ZM15.122 9.37401H16.892V9.31401H15.122V9.37401ZM15.08 9.91401H16.904V9.85401H15.08V9.91401Z" fill="black"/>
<path d="M15.452 11.64V11.61H15.422V11.64H15.452ZM16.532 11.64H16.562V11.61H16.532V11.64ZM16.532 12.036V12.066H16.562V12.036H16.532ZM15.452 12.036H15.422V12.066H15.452V12.036ZM14.528 11.69H17.444V11.63H14.528V11.69ZM17.444 11.63H14.528V11.69H17.444V11.63ZM15.452 11.67H16.532V11.61H15.452V11.67ZM16.502 11.64V12.036H16.562V11.64H16.502ZM16.532 12.006H15.452V12.066H16.532V12.006ZM15.482 12.036V11.64H15.422V12.036H15.482Z" fill="black"/>
<path fill-rule="evenodd" clip-rule="evenodd" d="M15.758 8.214L15.902 8.292L16.106 8.286L16.244 8.214V8.004C16.2367 8.00642 16.2292 8.00862 16.2215 8.01086C16.1719 8.02524 16.118 8.04091 16.118 8.124C16.0993 8.01652 16.077 8.00003 16.0397 7.97248C16.0291 7.96466 16.0173 7.95594 16.004 7.944C15.9903 7.95775 15.9773 7.96722 15.9653 7.97598C15.9302 8.00162 15.9034 8.02114 15.89 8.124C15.8793 8.03798 15.83 8.02422 15.7767 8.00934C15.7705 8.00761 15.7642 8.00587 15.758 8.004V8.214ZM15.4765 11.4811C15.4788 11.2624 15.482 10.9464 15.32 10.752H16.676C16.514 10.9464 16.5172 11.2624 16.5195 11.4811C16.5198 11.5054 16.52 11.5284 16.52 11.55H15.476C15.476 11.5284 15.4762 11.5054 15.4765 11.4811Z" fill="white"/>
<path d="M15.902 8.292L15.8877 8.31838L15.8948 8.32222L15.9029 8.32199L15.902 8.292ZM15.758 8.214H15.728V8.23187L15.7437 8.24038L15.758 8.214ZM16.106 8.286L16.107 8.31933L16.1199 8.3126L16.106 8.286ZM16.244 8.214L16.2579 8.2406L16.274 8.23219V8.214H16.244ZM16.244 8.004H16.274V7.96238L16.2345 7.97554L16.244 8.004ZM16.2215 8.01086L16.2298 8.03967L16.2298 8.03967L16.2215 8.01086ZM16.118 8.124L16.0885 8.12914L16.148 8.124H16.118ZM16.0397 7.97248L16.0219 7.99661L16.0219 7.99661L16.0397 7.97248ZM16.004 7.944L16.0241 7.9217L16.0029 7.90266L15.9828 7.92279L16.004 7.944ZM15.9653 7.97598L15.983 8.00021L15.983 8.00021L15.9653 7.97598ZM15.89 8.124L15.8602 8.12772L15.9198 8.12788L15.89 8.124ZM15.7767 8.00934L15.7686 8.03824V8.03824L15.7767 8.00934ZM15.758 8.004L15.7666 7.97527L15.728 7.96368V8.004H15.758ZM15.32 10.752V10.722H15.256L15.297 10.7712L15.32 10.752ZM15.4765 11.4811L15.5065 11.4815V11.4815L15.4765 11.4811ZM16.676 10.752L16.6991 10.7712L16.7401 10.722H16.676V10.752ZM16.5195 11.4811L16.5495 11.4808V11.4808L16.5195 11.4811ZM16.52 11.55V11.58H16.55V11.55H16.52ZM15.476 11.55H15.446V11.58H15.476V11.55ZM15.9163 8.26562L15.7723 8.18762L15.7437 8.24038L15.8877 8.31838L15.9163 8.26562ZM16.1051 8.25601L15.9011 8.26201L15.9029 8.32199L16.1069 8.31599L16.1051 8.25601ZM16.2301 8.1874L16.0921 8.2594L16.1199 8.3126L16.2579 8.2406L16.2301 8.1874ZM16.214 8.004V8.214H16.274V8.004H16.214ZM16.2298 8.03967C16.2374 8.03746 16.2456 8.0351 16.2535 8.03246L16.2345 7.97554C16.2279 7.97774 16.2209 7.97978 16.2131 7.98205L16.2298 8.03967ZM16.148 8.124C16.148 8.09001 16.1585 8.07443 16.1702 8.06488C16.1843 8.05335 16.2038 8.04723 16.2298 8.03967L16.2131 7.98205C16.1896 7.98887 16.1574 7.99777 16.1322 8.01845C16.1045 8.0411 16.088 8.0749 16.088 8.124H16.148ZM16.0219 7.99661C16.0407 8.0105 16.0509 8.01841 16.0601 8.03368C16.0698 8.04989 16.0793 8.0765 16.0885 8.12914L16.1476 8.11886C16.138 8.06402 16.127 8.02864 16.1116 8.00285C16.0955 7.97612 16.076 7.962 16.0575 7.94834L16.0219 7.99661ZM15.9839 7.9663C15.9984 7.97931 16.0112 7.98878 16.0219 7.99661L16.0575 7.94834C16.0469 7.94053 16.0362 7.93257 16.0241 7.9217L15.9839 7.9663ZM15.983 8.00021C15.995 7.99146 16.0097 7.98078 16.0252 7.96521L15.9828 7.92279C15.9709 7.93472 15.9596 7.94299 15.9476 7.95175L15.983 8.00021ZM15.9198 8.12788C15.9262 8.07831 15.9355 8.05245 15.9451 8.03664C15.9544 8.02136 15.9653 8.01313 15.983 8.00021L15.9476 7.95175C15.9302 7.96447 15.9101 7.97882 15.8939 8.00543C15.878 8.0315 15.8672 8.06683 15.8603 8.12012L15.9198 8.12788ZM15.7686 8.03824C15.7965 8.04602 15.8159 8.05188 15.8307 8.06354C15.8435 8.07367 15.8556 8.0907 15.8602 8.12772L15.9198 8.12028C15.9137 8.07128 15.8957 8.03842 15.8679 8.01645C15.842 7.996 15.8101 7.98754 15.7847 7.98045L15.7686 8.03824ZM15.7494 8.03274C15.7559 8.0347 15.7625 8.03652 15.7686 8.03824L15.7847 7.98045C15.7785 7.97871 15.7725 7.97704 15.7666 7.97527L15.7494 8.03274ZM15.788 8.214V8.004H15.728V8.214H15.788ZM15.297 10.7712C15.3729 10.8624 15.4114 10.9837 15.4302 11.1118C15.4489 11.2398 15.4476 11.3712 15.4465 11.4808L15.5065 11.4815C15.5076 11.3724 15.5091 11.2364 15.4895 11.1031C15.47 10.97 15.4291 10.8361 15.3431 10.7328L15.297 10.7712ZM16.676 10.722H15.32V10.782H16.676V10.722ZM16.5495 11.4808C16.5484 11.3712 16.5471 11.2398 16.5658 11.1118C16.5846 10.9837 16.6231 10.8624 16.6991 10.7712L16.653 10.7328C16.5669 10.8361 16.526 10.97 16.5065 11.1031C16.4869 11.2364 16.4884 11.3724 16.4895 11.4815L16.5495 11.4808ZM16.55 11.55C16.55 11.5283 16.5498 11.505 16.5495 11.4808L16.4895 11.4815C16.4898 11.5057 16.49 11.5286 16.49 11.55H16.55ZM15.476 11.58H16.52V11.52H15.476V11.58ZM15.4465 11.4808C15.4462 11.505 15.446 11.5283 15.446 11.55H15.506C15.506 11.5286 15.5062 11.5057 15.5065 11.4815L15.4465 11.4808Z" fill="black"/>
<path d="M15.89 8.634L15.65 8.466V8.28C15.74 8.298 15.83 8.31 15.842 8.412C15.866 8.262 15.92 8.19 16.004 8.13C16.082 8.19 16.136 8.262 16.166 8.412C16.172 8.31 16.268 8.298 16.346 8.28V8.472L16.112 8.634H15.89Z" fill="white" stroke="black" stroke-width="0.06"/>
<path fill-rule="evenodd" clip-rule="evenodd" d="M15.872 9.168L15.602 8.928V8.646L15.6265 8.65192C15.7156 8.67301 15.807 8.69468 15.818 8.832C15.848 8.622 15.908 8.508 15.998 8.424C16.094 8.508 16.154 8.622 16.19 8.832C16.201 8.69468 16.2924 8.67301 16.3815 8.65192L16.406 8.646V8.928L16.13 9.168H15.872ZM16.376 9.486L16.136 9.828H15.854L15.608 9.486H16.376ZM15.644 10.512C15.632 10.26 15.584 10.122 15.464 10.056H16.52C16.4 10.122 16.352 10.26 16.34 10.512H15.644Z" fill="white"/>
<path d="M15.602 8.928H15.572V8.94147L15.5821 8.95042L15.602 8.928ZM15.872 9.168L15.8521 9.19042L15.8606 9.198H15.872V9.168ZM15.602 8.646L15.609 8.61683L15.572 8.6079V8.646H15.602ZM15.6265 8.65192L15.6195 8.68108L15.6196 8.68111L15.6265 8.65192ZM15.818 8.832L15.7881 8.83439L15.8477 8.83624L15.818 8.832ZM15.998 8.424L16.0177 8.40142L15.9973 8.38357L15.9775 8.40206L15.998 8.424ZM16.19 8.832L16.1604 8.83706L16.2199 8.83439L16.19 8.832ZM16.3815 8.65192L16.3884 8.68111L16.3885 8.68108L16.3815 8.65192ZM16.406 8.646H16.436V8.6079L16.399 8.61683L16.406 8.646ZM16.406 8.928L16.4257 8.95063L16.436 8.94166V8.928H16.406ZM16.13 9.168V9.198H16.1412L16.1497 9.19063L16.13 9.168ZM16.136 9.828V9.858H16.1516L16.1605 9.84523L16.136 9.828ZM16.376 9.486L16.4005 9.50323L16.4337 9.456H16.376V9.486ZM15.854 9.828L15.8296 9.84551L15.8386 9.858H15.854V9.828ZM15.608 9.486V9.456H15.5495L15.5836 9.50351L15.608 9.486ZM15.464 10.056V10.026L15.4495 10.0823L15.464 10.056ZM15.644 10.512L15.614 10.5134L15.6154 10.542H15.644V10.512ZM16.52 10.056L16.5344 10.0823L16.52 10.026V10.056ZM16.34 10.512V10.542H16.3686L16.37 10.5134L16.34 10.512ZM15.5821 8.95042L15.8521 9.19042L15.8919 9.14557L15.6219 8.90557L15.5821 8.95042ZM15.572 8.646V8.928H15.632V8.646H15.572ZM15.6336 8.62275L15.609 8.61683L15.595 8.67516L15.6195 8.68108L15.6336 8.62275ZM15.8479 8.8296C15.8418 8.75336 15.8125 8.70499 15.7689 8.67395C15.7279 8.64469 15.6766 8.63296 15.6334 8.62272L15.6196 8.68111C15.6654 8.69197 15.7044 8.70161 15.7341 8.7228C15.7613 8.74219 15.7832 8.77332 15.7881 8.83439L15.8479 8.8296ZM15.9775 8.40206C15.8811 8.49208 15.8189 8.61322 15.7883 8.82775L15.8477 8.83624C15.877 8.63077 15.9349 8.52391 16.0185 8.44593L15.9775 8.40206ZM16.2196 8.82693C16.1829 8.61291 16.1207 8.49152 16.0177 8.40142L15.9782 8.44657C16.0673 8.52448 16.1251 8.63108 16.1604 8.83706L16.2196 8.82693ZM16.3745 8.62272C16.3313 8.63296 16.2801 8.64469 16.239 8.67395C16.1955 8.70499 16.1662 8.75336 16.1601 8.8296L16.2199 8.83439C16.2248 8.77332 16.2467 8.74219 16.2739 8.7228C16.3036 8.70161 16.3425 8.69197 16.3884 8.68111L16.3745 8.62272ZM16.399 8.61683L16.3744 8.62275L16.3885 8.68108L16.413 8.67516L16.399 8.61683ZM16.436 8.928V8.646H16.376V8.928H16.436ZM16.1497 9.19063L16.4257 8.95063L16.3863 8.90536L16.1103 9.14536L16.1497 9.19063ZM15.872 9.198H16.13V9.138H15.872V9.198ZM16.1605 9.84523L16.4005 9.50323L16.3514 9.46876L16.1114 9.81076L16.1605 9.84523ZM15.854 9.858H16.136V9.798H15.854V9.858ZM15.5836 9.50351L15.8296 9.84551L15.8783 9.81048L15.6323 9.46848L15.5836 9.50351ZM16.376 9.456H15.608V9.516H16.376V9.456ZM15.4495 10.0823C15.5541 10.1398 15.602 10.2616 15.614 10.5134L15.674 10.5106C15.6619 10.2583 15.6139 10.1042 15.4784 10.0297L15.4495 10.0823ZM16.52 10.026H15.464V10.086H16.52V10.026ZM16.37 10.5134C16.3819 10.2616 16.4299 10.1398 16.5344 10.0823L16.5055 10.0297C16.3701 10.1042 16.322 10.2583 16.31 10.5106L16.37 10.5134ZM15.644 10.542H16.34V10.482H15.644V10.542Z" fill="black"/>
<path d="M16.532 9.48V9.144C16.427 9.16638 16.3409 9.24117 16.304 9.342C16.304 9.222 16.154 8.964 15.992 8.832C15.83 8.976 15.674 9.216 15.68 9.336C15.65 9.246 15.572 9.174 15.452 9.144V9.486L16.532 9.48Z" fill="white" stroke="black" stroke-width="0.06" stroke-linejoin="bevel"/>
<path d="M16.58 10.056V9.72C16.454 9.756 16.37 9.822 16.334 9.918C16.334 9.798 16.172 9.54 15.992 9.408C15.812 9.558 15.644 9.792 15.65 9.918C15.62 9.828 15.53 9.756 15.404 9.72V10.062L16.58 10.056Z" fill="white" stroke="black" stroke-width="0.06" stroke-linejoin="bevel"/>
<path d="M16.724 10.758V10.362C16.5991 10.401 16.4912 10.4814 16.418 10.59C16.418 10.38 16.178 10.05 15.992 9.948C15.8 10.056 15.566 10.392 15.566 10.59C15.491 10.4807 15.381 10.4002 15.254 10.362V10.758H16.724Z" fill="white" stroke="black" stroke-width="0.06" stroke-linejoin="bevel"/>
<path d="M16.64 11.64V11.232C16.496 11.286 16.46 11.418 16.412 11.514C16.43 11.1 16.184 10.662 15.992 10.548C15.8 10.662 15.548 11.112 15.572 11.508C15.524 11.424 15.482 11.286 15.344 11.232V11.634L16.64 11.64Z" fill="white" stroke="black" stroke-width="0.06" stroke-linejoin="bevel"/>
<path d="M16.544 12.252V11.844C16.394 11.88 16.388 11.934 16.34 12.024C16.358 11.778 16.184 11.496 15.992 11.388C15.8 11.496 15.632 11.778 15.644 12.024C15.596 11.934 15.59 11.88 15.44 11.844V12.252H16.544Z" fill="white" stroke="black" stroke-width="0.06"/>
<path d="M10.22 13.752V12.528C10.178 12.372 10.04 12.228 9.94403 12.204V11.124L10.166 11.244L10.424 12.378V13.758L10.22 13.752Z" fill="white" stroke="black" stroke-width="0.06"/>
<path d="M10.22 13.758V12.528C10.178 12.372 10.04 12.228 9.94403 12.204V11.052C10.094 11.052 10.166 11.244 10.166 11.244L10.424 12.378V13.752L10.22 13.758Z" fill="white" stroke="black" stroke-width="0.06"/>
<path d="M10.058 14.07C10.16 14.028 10.31 13.896 10.31 13.77V12.234L10.238 12.114H12.86L12.758 12.234V13.77C12.767 13.8995 12.8449 14.0141 12.962 14.07H10.058Z" fill="white" stroke="black" stroke-width="0.06"/>
<path d="M12.428 14.07C12.326 14.028 12.176 13.896 12.176 13.77V12.312L12.392 12.108H10.616L10.832 12.312V13.77C10.832 13.896 10.682 14.028 10.58 14.07H12.428Z" fill="white" stroke="black" stroke-width="0.06"/>
<path d="M12.182 14.07C12.08 14.028 11.924 13.896 11.924 13.77V12.45L12.068 12.252H10.94L11.084 12.45V13.77C11.084 13.896 10.934 14.028 10.826 14.07H12.182Z" fill="white" stroke="black" stroke-width="0.06"/>
<path d="M11.24 12.252H11.774V14.076H11.234L11.24 12.252Z" fill="white" stroke="black" stroke-width="0.06"/>
<path fill-rule="evenodd" clip-rule="evenodd" d="M10.316 10.896H10.574V11.088H10.58V12.108H10.316V11.088V10.896ZM10.502 12.756H10.718V13.746H10.502V12.756ZM12.35 12.756H12.56V13.746H12.344L12.35 12.756ZM12.818 11.31H12.452V12.09H12.818V11.31Z" fill="white"/>
<path d="M10.574 10.896H10.604L10.574 10.866V10.896ZM10.316 10.896V10.866L10.286 10.896H10.316ZM10.574 11.088H10.544L10.574 11.118V11.088ZM10.58 11.088H10.61L10.58 11.058V11.088ZM10.58 12.108V12.138L10.61 12.108H10.58ZM10.316 12.108H10.286L10.316 12.138V12.108ZM10.718 12.756H10.748L10.718 12.726V12.756ZM10.502 12.756V12.726L10.472 12.756H10.502ZM10.718 13.746V13.776L10.748 13.746H10.718ZM10.502 13.746H10.472L10.502 13.776V13.746ZM12.56 12.756H12.59L12.56 12.726V12.756ZM12.35 12.756V12.726L12.32 12.7558L12.35 12.756ZM12.56 13.746V13.776L12.59 13.746H12.56ZM12.344 13.746L12.314 13.7458L12.344 13.776V13.746ZM12.452 11.31V11.28L12.422 11.31H12.452ZM12.818 11.31H12.848L12.818 11.28V11.31ZM12.452 12.09H12.422L12.452 12.12V12.09ZM12.818 12.09V12.12L12.848 12.09H12.818ZM10.574 10.866H10.316V10.926H10.574V10.866ZM10.604 11.088V10.896H10.544V11.088H10.604ZM10.58 11.058H10.574V11.118H10.58V11.058ZM10.61 12.108V11.088H10.55V12.108H10.61ZM10.316 12.138H10.58V12.078H10.316V12.138ZM10.286 11.088V12.108H10.346V11.088H10.286ZM10.286 10.896V11.088H10.346V10.896H10.286ZM10.718 12.726H10.502V12.786H10.718V12.726ZM10.748 13.746V12.756H10.688V13.746H10.748ZM10.502 13.776H10.718V13.716H10.502V13.776ZM10.472 12.756V13.746H10.532V12.756H10.472ZM12.56 12.726H12.35V12.786H12.56V12.726ZM12.59 13.746V12.756H12.53V13.746H12.59ZM12.344 13.776H12.56V13.716H12.344V13.776ZM12.32 12.7558L12.314 13.7458L12.374 13.7462L12.38 12.7562L12.32 12.7558ZM12.452 11.34H12.818V11.28H12.452V11.34ZM12.482 12.09V11.31H12.422V12.09H12.482ZM12.818 12.06H12.452V12.12H12.818V12.06ZM12.788 11.31V12.09H12.848V11.31H12.788Z" fill="black"/>
<path fill-rule="evenodd" clip-rule="evenodd" d="M10.574 10.356V12.096H12.464V10.362C12.4355 10.362 12.4165 10.4015 12.3934 10.4491C12.3581 10.522 12.3136 10.614 12.212 10.614C12.122 10.614 12.134 10.506 12.182 10.422C12.224 10.344 12.278 10.242 12.206 10.044C12.152 10.194 12.02 10.242 12.044 10.152C12.0573 10.1009 12.0789 10.0629 12.0993 10.0271C12.1435 9.94953 12.1817 9.88234 12.116 9.71401C12.086 9.91801 11.954 9.91201 11.984 9.79201C11.9928 9.75848 12.004 9.72956 12.0146 9.70223C12.0477 9.61706 12.0747 9.54736 12.002 9.40201C11.948 9.62401 11.882 9.61201 11.882 9.47401C11.882 9.46962 11.882 9.46521 11.882 9.4608C11.8822 9.26623 11.8823 9.05228 11.63 8.97601C11.63 8.97601 11.612 8.79601 11.522 8.79601C11.426 8.79601 11.408 8.97601 11.408 8.97601C11.156 9.05401 11.156 9.27001 11.156 9.47401C11.156 9.61201 11.09 9.62401 11.036 9.40201C10.9634 9.54736 10.9904 9.61706 11.0235 9.70223C11.0341 9.72956 11.0453 9.75848 11.054 9.79201C11.084 9.91201 10.952 9.91801 10.922 9.71401C10.8563 9.88234 10.8946 9.94953 10.9388 10.0271C10.9591 10.0629 10.9808 10.1009 10.994 10.152C11.018 10.242 10.886 10.194 10.832 10.044C10.76 10.242 10.814 10.344 10.856 10.422C10.91 10.506 10.916 10.614 10.826 10.614C10.7245 10.614 10.6799 10.5198 10.6447 10.4452C10.6216 10.3964 10.6025 10.356 10.574 10.356ZM10.16 12.108V10.782C10.208 10.752 10.256 10.752 10.31 10.782V12.108H10.16Z" fill="white"/>
<path d="M10.574 12.096H10.544V12.126H10.574V12.096ZM10.574 10.356V10.326H10.544V10.356H10.574ZM12.464 12.096V12.126H12.494V12.096H12.464ZM12.464 10.362H12.494V10.332H12.464V10.362ZM12.3934 10.4491L12.4204 10.4622V10.4622L12.3934 10.4491ZM12.182 10.422L12.2081 10.4369L12.2084 10.4362L12.182 10.422ZM12.206 10.044L12.2342 10.0338L12.2059 9.95583L12.1778 10.0338L12.206 10.044ZM12.044 10.152L12.073 10.1597L12.0731 10.1595L12.044 10.152ZM12.0993 10.0271L12.0732 10.0122V10.0122L12.0993 10.0271ZM12.116 9.71401L12.144 9.7031L12.1028 9.59763L12.0864 9.70964L12.116 9.71401ZM11.984 9.79201L11.955 9.78443L11.9549 9.78473L11.984 9.79201ZM12.0146 9.70223L12.0426 9.71309V9.71309L12.0146 9.70223ZM12.002 9.40201L12.0289 9.38859L11.9922 9.31534L11.9729 9.39491L12.002 9.40201ZM11.882 9.4608L11.912 9.46082V9.46082L11.882 9.4608ZM11.63 8.97601L11.6002 8.97899L11.6022 8.99892L11.6214 9.00472L11.63 8.97601ZM11.408 8.97601L11.4169 9.00466L11.4359 8.99878L11.4379 8.97899L11.408 8.97601ZM11.036 9.40201L11.0652 9.39491L11.0458 9.31534L11.0092 9.38859L11.036 9.40201ZM11.0235 9.70223L11.0514 9.69138L11.0514 9.69138L11.0235 9.70223ZM11.054 9.79201L11.0831 9.78473L11.0831 9.78443L11.054 9.79201ZM10.922 9.71401L10.9517 9.70964L10.9352 9.59763L10.8941 9.7031L10.922 9.71401ZM10.9388 10.0271L10.9648 10.0122V10.0122L10.9388 10.0271ZM10.994 10.152L10.965 10.1595L10.965 10.1597L10.994 10.152ZM10.832 10.044L10.8603 10.0338L10.8322 9.95583L10.8038 10.0338L10.832 10.044ZM10.856 10.422L10.8295 10.4363L10.8308 10.4382L10.856 10.422ZM10.6447 10.4452L10.6718 10.4324H10.6718L10.6447 10.4452ZM10.16 10.782L10.1441 10.7566L10.13 10.7654V10.782H10.16ZM10.16 12.108H10.13V12.138H10.16V12.108ZM10.31 10.782H10.34V10.7644L10.3246 10.7558L10.31 10.782ZM10.31 12.108V12.138H10.34V12.108H10.31ZM10.604 12.096V10.356H10.544V12.096H10.604ZM12.464 12.066H10.574V12.126H12.464V12.066ZM12.434 10.362V12.096H12.494V10.362H12.434ZM12.4204 10.4622C12.4323 10.4376 12.4417 10.4184 12.4511 10.405C12.4557 10.3986 12.4593 10.395 12.4618 10.3932C12.4629 10.3924 12.4636 10.3921 12.4638 10.3921C12.464 10.392 12.464 10.392 12.464 10.392V10.332C12.4344 10.332 12.4147 10.3528 12.4022 10.3703C12.3892 10.3886 12.3775 10.413 12.3664 10.4361L12.4204 10.4622ZM12.212 10.644C12.2735 10.644 12.3177 10.6155 12.3501 10.5787C12.3815 10.543 12.4031 10.4979 12.4204 10.4622L12.3664 10.4361C12.3484 10.4732 12.3301 10.5106 12.305 10.5391C12.281 10.5664 12.2521 10.584 12.212 10.584V10.644ZM12.156 10.4071C12.1304 10.4519 12.1126 10.5058 12.1153 10.5513C12.1167 10.5744 12.1236 10.5982 12.1408 10.6164C12.1585 10.6352 12.1833 10.644 12.212 10.644V10.584C12.1958 10.584 12.1883 10.5793 12.1845 10.5752C12.1801 10.5706 12.1761 10.5621 12.1752 10.5477C12.1735 10.5182 12.1857 10.4761 12.2081 10.4369L12.156 10.4071ZM12.1778 10.0543C12.2124 10.1492 12.216 10.219 12.2072 10.2732C12.1983 10.3277 12.1766 10.3688 12.1556 10.4078L12.2084 10.4362C12.2295 10.3972 12.2558 10.3483 12.2664 10.2828C12.2771 10.217 12.2717 10.1368 12.2342 10.0338L12.1778 10.0543ZM12.015 10.1443C12.0083 10.1695 12.0078 10.2032 12.0364 10.22C12.049 10.2275 12.0629 10.2283 12.0747 10.2266C12.0866 10.225 12.0985 10.2205 12.1098 10.2145C12.1544 10.1909 12.2052 10.1348 12.2343 10.0542L12.1778 10.0338C12.1528 10.1032 12.1107 10.1461 12.0817 10.1615C12.0747 10.1653 12.0695 10.1668 12.0663 10.1672C12.0631 10.1677 12.0641 10.1667 12.0669 10.1684C12.0757 10.1736 12.0678 10.1795 12.073 10.1597L12.015 10.1443ZM12.0732 10.0122C12.0529 10.048 12.0294 10.0891 12.015 10.1445L12.0731 10.1595C12.0852 10.1127 12.105 10.0778 12.1254 10.0419L12.0732 10.0122ZM12.0881 9.72491C12.1198 9.80607 12.1251 9.85953 12.1192 9.9003C12.1132 9.94145 12.0956 9.97301 12.0732 10.0122L12.1254 10.0419C12.1472 10.0036 12.1708 9.9628 12.1786 9.90889C12.1864 9.85458 12.178 9.79028 12.144 9.7031L12.0881 9.72491ZM11.9549 9.78473C11.9464 9.81886 11.9478 9.85093 11.9621 9.87466C11.9695 9.88687 11.9803 9.89658 11.9939 9.90183C12.0074 9.90707 12.0219 9.90715 12.0354 9.90345C12.0619 9.89622 12.0857 9.87479 12.1041 9.84483C12.1228 9.81432 12.1378 9.77234 12.1457 9.71837L12.0864 9.70964C12.0793 9.75767 12.0665 9.79144 12.053 9.81343C12.0391 9.83597 12.0261 9.84379 12.0196 9.84556C12.0167 9.84636 12.0156 9.84588 12.0155 9.84586C12.0154 9.84582 12.0152 9.84574 12.015 9.8455C12.0147 9.84524 12.0141 9.84468 12.0134 9.8436C12.0106 9.83883 12.0067 9.82515 12.0131 9.79928L11.9549 9.78473ZM11.9866 9.69138C11.9761 9.71859 11.9642 9.74902 11.955 9.78443L12.0131 9.79958C12.0213 9.76795 12.0319 9.74053 12.0426 9.71309L11.9866 9.69138ZM11.9752 9.41542C12.01 9.48499 12.0196 9.5337 12.018 9.57352C12.0164 9.61401 12.0034 9.64822 11.9866 9.69138L12.0426 9.71309C12.0589 9.67107 12.0759 9.62785 12.0779 9.57586C12.08 9.5232 12.0668 9.46438 12.0289 9.38859L11.9752 9.41542ZM11.852 9.47401C11.852 9.5101 11.8562 9.54127 11.8655 9.56362C11.87 9.5747 11.877 9.58648 11.888 9.59458C11.9005 9.60374 11.9159 9.60643 11.931 9.60156C11.9443 9.59725 11.955 9.5879 11.9633 9.57807C11.9718 9.56791 11.9799 9.5549 11.9874 9.53959C12.0025 9.50894 12.0174 9.46575 12.0312 9.4091L11.9729 9.39491C11.9597 9.44926 11.946 9.48782 11.9336 9.51305C11.9274 9.52568 11.9218 9.53413 11.9174 9.53939C11.9127 9.54499 11.9109 9.54501 11.9126 9.54445C11.9161 9.54333 11.9207 9.54414 11.9235 9.54623C11.9249 9.54725 11.9234 9.54674 11.9209 9.54076C11.9161 9.52899 11.912 9.50691 11.912 9.47401H11.852ZM11.852 9.46078C11.852 9.46519 11.852 9.4696 11.852 9.47401H11.912C11.912 9.46963 11.912 9.46524 11.912 9.46082L11.852 9.46078ZM11.6214 9.00472C11.7383 9.04008 11.7942 9.10568 11.8225 9.18421C11.8518 9.2657 11.8521 9.36224 11.852 9.46078L11.912 9.46082C11.9121 9.3648 11.9125 9.25708 11.8789 9.16387C11.8443 9.06771 11.774 8.9882 11.6387 8.94729L11.6214 9.00472ZM11.522 8.82601C11.5332 8.82601 11.5435 8.83116 11.554 8.84356C11.565 8.85643 11.5742 8.87502 11.5815 8.89592C11.5887 8.91647 11.5934 8.93734 11.5963 8.95329C11.5978 8.96121 11.5987 8.96777 11.5994 8.97231C11.5997 8.97457 11.5999 8.97632 11.6 8.97746C11.6001 8.97803 11.6001 8.97845 11.6002 8.97871C11.6002 8.97884 11.6002 8.97893 11.6002 8.97898C11.6002 8.979 11.6002 8.97901 11.6002 8.97902C11.6002 8.97902 11.6002 8.97902 11.6002 8.97901C11.6002 8.97901 11.6002 8.979 11.6002 8.979C11.6002 8.979 11.6002 8.97899 11.63 8.97601C11.6599 8.97302 11.6599 8.97301 11.6599 8.973C11.6599 8.973 11.6599 8.97299 11.6599 8.97298C11.6599 8.97297 11.6599 8.97295 11.6599 8.97293C11.6599 8.97289 11.6599 8.97284 11.6599 8.97277C11.6598 8.97265 11.6598 8.97248 11.6598 8.97227C11.6598 8.97184 11.6597 8.97125 11.6596 8.97051C11.6594 8.96902 11.6592 8.9669 11.6588 8.96424C11.6581 8.95892 11.657 8.95143 11.6553 8.94247C11.6521 8.92467 11.6467 8.90054 11.6381 8.87609C11.6297 8.85199 11.6175 8.82558 11.5997 8.8047C11.5816 8.78336 11.5559 8.76601 11.522 8.76601V8.82601ZM11.408 8.97601C11.4379 8.97899 11.4379 8.979 11.4379 8.979C11.4379 8.979 11.4379 8.97901 11.4379 8.97901C11.4379 8.97902 11.4379 8.97902 11.4379 8.97902C11.4379 8.97902 11.4379 8.97901 11.4379 8.97898C11.4379 8.97894 11.4379 8.97885 11.4379 8.97873C11.4379 8.97847 11.438 8.97806 11.4381 8.97749C11.4382 8.97636 11.4384 8.97462 11.4387 8.97237C11.4393 8.96787 11.4403 8.96133 11.4418 8.95345C11.4448 8.93756 11.4497 8.91678 11.4572 8.89633C11.4648 8.87557 11.4744 8.85706 11.486 8.8442C11.4971 8.83188 11.5087 8.82601 11.522 8.82601V8.76601C11.4874 8.76601 11.4607 8.78263 11.4414 8.80406C11.4226 8.82495 11.4098 8.85144 11.4009 8.87568C11.3919 8.90023 11.3862 8.92445 11.3829 8.94231C11.3812 8.9513 11.38 8.95883 11.3793 8.96417C11.3789 8.96684 11.3786 8.96897 11.3785 8.97047C11.3784 8.97123 11.3783 8.97182 11.3783 8.97225C11.3782 8.97246 11.3782 8.97264 11.3782 8.97276C11.3782 8.97283 11.3782 8.97288 11.3782 8.97293C11.3782 8.97295 11.3782 8.97297 11.3782 8.97298C11.3782 8.97299 11.3782 8.973 11.3782 8.973C11.3782 8.97301 11.3782 8.97302 11.408 8.97601ZM11.186 9.47401C11.186 9.37072 11.1864 9.27122 11.2158 9.18774C11.2442 9.10723 11.3002 9.0408 11.4169 9.00466L11.3992 8.94735C11.2639 8.98921 11.1938 9.06978 11.1592 9.16777C11.1257 9.26279 11.126 9.37329 11.126 9.47401H11.186ZM11.0069 9.4091C11.0207 9.46575 11.0355 9.50894 11.0507 9.53959C11.0582 9.5549 11.0662 9.56791 11.0748 9.57807C11.0831 9.5879 11.0937 9.59725 11.1071 9.60156C11.1222 9.60643 11.1376 9.60374 11.1501 9.59458C11.1611 9.58648 11.168 9.5747 11.1726 9.56362C11.1818 9.54127 11.186 9.5101 11.186 9.47401H11.126C11.126 9.50691 11.122 9.52899 11.1171 9.54076C11.1147 9.54674 11.1131 9.54725 11.1145 9.54623C11.1174 9.54414 11.122 9.54333 11.1255 9.54445C11.1272 9.54501 11.1254 9.54499 11.1207 9.53939C11.1162 9.53413 11.1107 9.52568 11.1045 9.51305C11.092 9.48782 11.0784 9.44926 11.0652 9.39491L11.0069 9.4091ZM11.0514 9.69138C11.0347 9.64822 11.0217 9.61401 11.0201 9.57352C11.0185 9.5337 11.0281 9.48499 11.0629 9.41542L11.0092 9.38859C10.9713 9.46438 10.9581 9.5232 10.9601 9.57586C10.9622 9.62785 10.9792 9.67107 10.9955 9.71309L11.0514 9.69138ZM11.0831 9.78443C11.0738 9.74902 11.062 9.71859 11.0514 9.69138L10.9955 9.71309C11.0061 9.74053 11.0168 9.76795 11.025 9.79958L11.0831 9.78443ZM10.8924 9.71837C10.9003 9.77234 10.9152 9.81432 10.934 9.84483C10.9524 9.87479 10.9761 9.89622 11.0026 9.90345C11.0162 9.90715 11.0306 9.90707 11.0442 9.90183C11.0578 9.89658 11.0686 9.88687 11.0759 9.87466C11.0903 9.85093 11.0917 9.81886 11.0831 9.78473L11.0249 9.79928C11.0314 9.82515 11.0275 9.83883 11.0246 9.8436C11.024 9.84468 11.0234 9.84524 11.0231 9.8455C11.0228 9.84574 11.0227 9.84582 11.0226 9.84586C11.0225 9.84588 11.0214 9.84636 11.0184 9.84556C11.0119 9.84379 10.9989 9.83597 10.9851 9.81343C10.9716 9.79144 10.9588 9.75767 10.9517 9.70964L10.8924 9.71837ZM10.9648 10.0122C10.9425 9.97301 10.9248 9.94145 10.9189 9.9003C10.913 9.85953 10.9183 9.80607 10.95 9.72491L10.8941 9.7031C10.8601 9.79028 10.8517 9.85458 10.8595 9.90889C10.8673 9.9628 10.8909 10.0036 10.9127 10.0419L10.9648 10.0122ZM11.0231 10.1445C11.0087 10.0891 10.9852 10.048 10.9648 10.0122L10.9127 10.0419C10.9331 10.0778 10.9528 10.1127 10.965 10.1595L11.0231 10.1445ZM10.8038 10.0542C10.8328 10.1348 10.8837 10.1909 10.9282 10.2145C10.9395 10.2205 10.9515 10.225 10.9634 10.2266C10.9752 10.2283 10.9891 10.2275 11.0017 10.22C11.0302 10.2032 11.0298 10.1695 11.023 10.1443L10.965 10.1597C10.9703 10.1795 10.9623 10.1736 10.9712 10.1684C10.9739 10.1667 10.975 10.1677 10.9717 10.1672C10.9686 10.1668 10.9634 10.1653 10.9563 10.1615C10.9274 10.1461 10.8852 10.1032 10.8603 10.0338L10.8038 10.0542ZM10.8824 10.4078C10.8615 10.3688 10.8398 10.3277 10.8309 10.2732C10.8221 10.219 10.8257 10.1492 10.8602 10.0543L10.8038 10.0338C10.7664 10.1368 10.761 10.217 10.7717 10.2828C10.7823 10.3483 10.8086 10.3972 10.8296 10.4362L10.8824 10.4078ZM10.826 10.644C10.8548 10.644 10.8796 10.6352 10.8977 10.6169C10.9153 10.599 10.9231 10.5754 10.9249 10.5519C10.9286 10.5058 10.9105 10.4513 10.8813 10.4058L10.8308 10.4382C10.8555 10.4767 10.8674 10.5182 10.8651 10.5471C10.864 10.5612 10.8598 10.5698 10.8549 10.5748C10.8504 10.5793 10.8423 10.584 10.826 10.584V10.644ZM10.6176 10.458C10.6349 10.4946 10.6564 10.5406 10.6878 10.5771C10.7201 10.6147 10.7643 10.644 10.826 10.644V10.584C10.7862 10.584 10.7574 10.5662 10.7333 10.538C10.7081 10.5087 10.6898 10.4704 10.6718 10.4324L10.6176 10.458ZM10.574 10.386C10.574 10.386 10.574 10.386 10.574 10.386C10.574 10.386 10.574 10.386 10.574 10.386C10.5739 10.386 10.5739 10.386 10.574 10.386C10.5742 10.3861 10.5749 10.3864 10.576 10.3872C10.5785 10.389 10.5821 10.3927 10.5867 10.3994C10.5962 10.4131 10.6057 10.4328 10.6176 10.458L10.6718 10.4324C10.6606 10.4088 10.649 10.3839 10.6361 10.3652C10.6237 10.3475 10.604 10.326 10.574 10.326V10.386ZM10.13 10.782V12.108H10.19V10.782H10.13ZM10.3246 10.7558C10.2943 10.739 10.2638 10.7295 10.2328 10.7295C10.2016 10.7295 10.1721 10.7391 10.1441 10.7566L10.1759 10.8074C10.1959 10.7949 10.2145 10.7895 10.2328 10.7895C10.2512 10.7895 10.2718 10.7951 10.2955 10.8082L10.3246 10.7558ZM10.34 12.108V10.782H10.28V12.108H10.34ZM10.16 12.138H10.31V12.078H10.16V12.138Z" fill="black"/>
<path fill-rule="evenodd" clip-rule="evenodd" d="M12.764 12.108V11.244C12.794 11.22 12.848 11.226 12.884 11.244V12.108H12.764ZM10.592 12.108C10.544 11.85 10.358 11.736 10.172 11.64V12.108H10.592Z" fill="white"/>
<path d="M12.764 11.244L12.7453 11.2206L12.734 11.2296V11.244H12.764ZM12.764 12.108H12.734V12.138H12.764V12.108ZM12.884 11.244H12.914V11.2255L12.8974 11.2172L12.884 11.244ZM12.884 12.108V12.138H12.914V12.108H12.884ZM10.172 11.64L10.1858 11.6133L10.142 11.5908V11.64H10.172ZM10.592 12.108V12.138H10.6281L10.6215 12.1025L10.592 12.108ZM10.172 12.108H10.142V12.138H10.172V12.108ZM12.734 11.244V12.108H12.794V11.244H12.734ZM12.8974 11.2172C12.8756 11.2063 12.8489 11.1992 12.8228 11.1983C12.7971 11.1974 12.7679 11.2024 12.7453 11.2206L12.7827 11.2674C12.7901 11.2616 12.8029 11.2576 12.8207 11.2582C12.8381 11.2588 12.8564 11.2637 12.8706 11.2708L12.8974 11.2172ZM12.914 12.108V11.244H12.854V12.108H12.914ZM12.764 12.138H12.884V12.078H12.764V12.138ZM10.1582 11.6667C10.3437 11.7624 10.5173 11.8706 10.5625 12.1135L10.6215 12.1025C10.5707 11.8294 10.3723 11.7096 10.1858 11.6133L10.1582 11.6667ZM10.202 12.108V11.64H10.142V12.108H10.202ZM10.592 12.078H10.172V12.138H10.592V12.078Z" fill="black"/>
<path fill-rule="evenodd" clip-rule="evenodd" d="M11.756 9.52799L11.648 9.61799H11.378L11.27 9.52199V9.40199C11.312 9.41399 11.33 9.41999 11.36 9.46199C11.3864 9.38529 11.4426 9.32252 11.516 9.28799C11.5884 9.32518 11.6425 9.39014 11.666 9.46799C11.696 9.42599 11.72 9.40799 11.756 9.40799V9.52799ZM12.464 12.102C12.512 11.838 12.698 11.73 12.884 11.64V12.102H12.464Z" fill="white"/>
<path d="M11.648 9.61799V9.64799H11.6589L11.6672 9.64104L11.648 9.61799ZM11.756 9.52799L11.7752 9.55104L11.786 9.54205V9.52799H11.756ZM11.378 9.61799L11.3581 9.64042L11.3666 9.64799H11.378V9.61799ZM11.27 9.52199H11.24V9.53547L11.2501 9.54442L11.27 9.52199ZM11.27 9.40199L11.2783 9.37315L11.24 9.36222V9.40199H11.27ZM11.36 9.46199L11.3356 9.47943L11.3695 9.52684L11.3884 9.47174L11.36 9.46199ZM11.516 9.28799L11.5297 9.26131L11.5166 9.25456L11.5032 9.26085L11.516 9.28799ZM11.666 9.46799L11.6373 9.47667L11.655 9.53509L11.6904 9.48543L11.666 9.46799ZM11.756 9.40799H11.786V9.37799H11.756V9.40799ZM12.884 11.64H12.914V11.5922L12.871 11.613L12.884 11.64ZM12.464 12.102L12.4345 12.0966L12.4281 12.132H12.464V12.102ZM12.884 12.102V12.132H12.914V12.102H12.884ZM11.6672 9.64104L11.7752 9.55104L11.7368 9.50495L11.6288 9.59495L11.6672 9.64104ZM11.378 9.64799H11.648V9.58799H11.378V9.64799ZM11.2501 9.54442L11.3581 9.64042L11.398 9.59557L11.29 9.49957L11.2501 9.54442ZM11.24 9.40199V9.52199H11.3V9.40199H11.24ZM11.3844 9.44456C11.3682 9.42185 11.3534 9.40632 11.3352 9.39515C11.3176 9.38442 11.2986 9.37896 11.2783 9.37315L11.2618 9.43084C11.2834 9.43703 11.2944 9.44057 11.3039 9.44634C11.3126 9.45167 11.3218 9.46014 11.3356 9.47943L11.3844 9.44456ZM11.5032 9.26085C11.4225 9.29883 11.3606 9.36788 11.3316 9.45225L11.3884 9.47174C11.4121 9.40271 11.4627 9.34622 11.5288 9.31514L11.5032 9.26085ZM11.6947 9.45931C11.6688 9.37368 11.6093 9.30222 11.5297 9.26131L11.5023 9.31467C11.5674 9.34814 11.6161 9.40661 11.6373 9.47667L11.6947 9.45931ZM11.756 9.37799C11.7323 9.37799 11.7113 9.38415 11.6918 9.39749C11.6733 9.41018 11.6573 9.42852 11.6416 9.45056L11.6904 9.48543C11.7047 9.46547 11.7158 9.45381 11.7257 9.447C11.7347 9.44084 11.7437 9.43799 11.756 9.43799V9.37799ZM11.786 9.52799V9.40799H11.726V9.52799H11.786ZM12.871 11.613C12.6841 11.7034 12.4853 11.8171 12.4345 12.0966L12.4935 12.1074C12.5387 11.8589 12.7119 11.7566 12.8971 11.667L12.871 11.613ZM12.914 12.102V11.64H12.854V12.102H12.914ZM12.464 12.132H12.884V12.072H12.464V12.132Z" fill="black"/>
<path d="M11.708 9.912L11.756 9.798V9.648C11.72 9.648 11.696 9.666 11.666 9.708C11.6425 9.63015 11.5884 9.56519 11.516 9.528C11.4426 9.56253 11.3864 9.6253 11.36 9.702C11.33 9.66 11.312 9.654 11.27 9.648V9.798L11.318 9.912H11.708Z" fill="white" stroke="black" stroke-width="0.06"/>
<path d="M11.72 10.308L11.876 10.11V9.918C11.816 9.918 11.786 9.948 11.744 10.014C11.702 9.876 11.624 9.852 11.516 9.786C11.402 9.846 11.324 9.876 11.288 10.008C11.24 9.942 11.21 9.924 11.15 9.918V10.11L11.312 10.308H11.72Z" fill="white" stroke="black" stroke-width="0.06"/>
<path d="M11.762 10.698C11.762 10.698 11.954 10.536 11.96 10.446V10.236C11.888 10.242 11.822 10.26 11.768 10.35C11.72 10.176 11.648 10.128 11.516 10.05C11.378 10.128 11.306 10.176 11.264 10.35C11.204 10.26 11.144 10.242 11.066 10.23V10.446C11.1164 10.5412 11.1835 10.6265 11.264 10.698H11.762Z" fill="white" stroke="black" stroke-width="0.06"/>
<path d="M11.84 11.418C11.84 11.418 12.104 11.136 12.11 11.022V10.698C12.014 10.71 11.918 10.776 11.846 10.914C11.786 10.644 11.69 10.458 11.516 10.326C11.336 10.458 11.24 10.644 11.18 10.914C11.108 10.776 11.018 10.71 10.922 10.698V11.022C10.94 11.136 11.186 11.418 11.186 11.418H11.84Z" fill="white" stroke="black" stroke-width="0.06"/>
<path d="M11.84 11.844C11.84 11.844 12.062 11.622 12.11 11.526V11.202C12.014 11.214 11.918 11.28 11.846 11.412C11.8136 11.1915 11.6949 10.9929 11.516 10.86C11.336 10.992 11.24 11.142 11.18 11.412C11.108 11.28 11.018 11.214 10.922 11.202V11.526C10.982 11.622 11.186 11.844 11.186 11.844H11.84Z" fill="white" stroke="black" stroke-width="0.06"/>
<path d="M11.93 12.096C11.87 11.814 11.81 11.604 11.504 11.394C11.192 11.604 11.138 11.814 11.072 12.096H11.93Z" fill="white" stroke="black" stroke-width="0.06"/>
<path d="M12.092 12.252V11.844C11.948 11.904 11.822 11.982 11.774 12.072C11.726 11.844 11.624 11.748 11.498 11.61C11.372 11.748 11.288 11.85 11.234 12.072C11.186 11.982 11.06 11.898 10.922 11.844V12.252H12.092Z" fill="white" stroke="black" stroke-width="0.06"/>
<path d="M21.782 13.752V12.528C21.824 12.372 21.962 12.228 22.058 12.204V11.124L21.836 11.244L21.578 12.378V13.758L21.782 13.752Z" fill="white" stroke="black" stroke-width="0.06"/>
<path d="M21.782 13.758V12.528C21.824 12.372 21.962 12.228 22.058 12.204V11.052C21.908 11.052 21.836 11.244 21.836 11.244L21.578 12.378V13.752L21.782 13.758Z" fill="white" stroke="black" stroke-width="0.06"/>
<path d="M21.944 14.07C21.842 14.028 21.692 13.896 21.692 13.77V12.234L21.764 12.114H19.142L19.244 12.234V13.77C19.2351 13.8995 19.1571 14.0141 19.04 14.07H21.944Z" fill="white" stroke="black" stroke-width="0.06"/>
<path d="M19.574 14.07C19.676 14.028 19.826 13.896 19.826 13.77V12.312L19.61 12.108H21.386L21.17 12.312V13.77C21.17 13.896 21.32 14.028 21.422 14.07H19.574Z" fill="white" stroke="black" stroke-width="0.06"/>
<path d="M19.82 14.07C19.922 14.028 20.078 13.896 20.078 13.77V12.45L19.934 12.252H21.062L20.918 12.45V13.77C20.918 13.896 21.068 14.028 21.176 14.07H19.82Z" fill="white" stroke="black" stroke-width="0.06"/>
<path d="M20.762 12.252H20.228V14.076H20.768L20.762 12.252Z" fill="white" stroke="black" stroke-width="0.06"/>
<path fill-rule="evenodd" clip-rule="evenodd" d="M21.686 10.896H21.428V11.088H21.422V12.108H21.686V11.088V10.896ZM21.5 12.756H21.284V13.746H21.5V12.756ZM19.652 12.756H19.442V13.746H19.658L19.652 12.756ZM19.184 11.31H19.55V12.09H19.184V11.31Z" fill="white"/>
<path d="M21.428 10.896H21.398L21.428 10.866V10.896ZM21.686 10.896V10.866L21.716 10.896H21.686ZM21.428 11.088H21.458L21.428 11.118V11.088ZM21.422 11.088H21.392L21.422 11.058V11.088ZM21.422 12.108V12.138L21.392 12.108H21.422ZM21.686 12.108H21.716L21.686 12.138V12.108ZM21.284 12.756H21.254L21.284 12.726V12.756ZM21.5 12.756V12.726L21.53 12.756H21.5ZM21.284 13.746V13.776L21.254 13.746H21.284ZM21.5 13.746H21.53L21.5 13.776V13.746ZM19.442 12.756H19.412L19.442 12.726V12.756ZM19.652 12.756V12.726L19.682 12.7558L19.652 12.756ZM19.442 13.746V13.776L19.412 13.746H19.442ZM19.658 13.746L19.688 13.7458L19.658 13.776V13.746ZM19.55 11.31V11.28L19.58 11.31H19.55ZM19.184 11.31H19.154L19.184 11.28V11.31ZM19.55 12.09H19.58L19.55 12.12V12.09ZM19.184 12.09V12.12L19.154 12.09H19.184ZM21.428 10.866H21.686V10.926H21.428V10.866ZM21.398 11.088V10.896H21.458V11.088H21.398ZM21.422 11.058H21.428V11.118H21.422V11.058ZM21.392 12.108V11.088H21.452V12.108H21.392ZM21.686 12.138H21.422V12.078H21.686V12.138ZM21.716 11.088V12.108H21.656V11.088H21.716ZM21.716 10.896V11.088H21.656V10.896H21.716ZM21.284 12.726H21.5V12.786H21.284V12.726ZM21.254 13.746V12.756H21.314V13.746H21.254ZM21.5 13.776H21.284V13.716H21.5V13.776ZM21.53 12.756V13.746H21.47V12.756H21.53ZM19.442 12.726H19.652V12.786H19.442V12.726ZM19.412 13.746V12.756H19.472V13.746H19.412ZM19.658 13.776H19.442V13.716H19.658V13.776ZM19.682 12.7558L19.688 13.7458L19.628 13.7462L19.622 12.7562L19.682 12.7558ZM19.55 11.34H19.184V11.28H19.55V11.34ZM19.52 12.09V11.31H19.58V12.09H19.52ZM19.184 12.06H19.55V12.12H19.184V12.06ZM19.214 11.31V12.09H19.154V11.31H19.214Z" fill="black"/>
<path fill-rule="evenodd" clip-rule="evenodd" d="M21.428 10.356V12.096H19.538V10.362C19.5665 10.362 19.5856 10.4015 19.6087 10.4491C19.644 10.522 19.6885 10.614 19.79 10.614C19.88 10.614 19.868 10.506 19.82 10.422C19.778 10.344 19.724 10.242 19.796 10.044C19.85 10.194 19.982 10.242 19.958 10.152C19.9448 10.1009 19.9231 10.0629 19.9028 10.0271C19.8586 9.94953 19.8203 9.88234 19.886 9.71401C19.916 9.91801 20.048 9.91201 20.018 9.79201C20.0093 9.75848 19.9981 9.72956 19.9875 9.70223C19.9544 9.61706 19.9274 9.54736 20 9.40201C20.054 9.62401 20.12 9.61201 20.12 9.47401C20.12 9.46962 20.12 9.46521 20.12 9.4608C20.1199 9.26623 20.1198 9.05228 20.372 8.97601C20.372 8.97601 20.39 8.79601 20.48 8.79601C20.576 8.79601 20.594 8.97601 20.594 8.97601C20.846 9.05401 20.846 9.27001 20.846 9.47401C20.846 9.61201 20.912 9.62401 20.966 9.40201C21.0387 9.54736 21.0117 9.61706 20.9786 9.70223C20.968 9.72956 20.9568 9.75848 20.948 9.79201C20.918 9.91201 21.05 9.91801 21.08 9.71401C21.1457 9.88234 21.1075 9.94953 21.0633 10.0271C21.0429 10.0629 21.0213 10.1009 21.008 10.152C20.984 10.242 21.116 10.194 21.17 10.044C21.242 10.242 21.188 10.344 21.146 10.422C21.092 10.506 21.086 10.614 21.176 10.614C21.2776 10.614 21.3221 10.5198 21.3574 10.4452C21.3805 10.3964 21.3996 10.356 21.428 10.356ZM21.842 12.108V10.782C21.794 10.752 21.746 10.752 21.692 10.782V12.108H21.842Z" fill="white"/>
<path d="M21.428 12.096H21.458V12.126H21.428V12.096ZM21.428 10.356V10.326H21.458V10.356H21.428ZM19.538 12.096V12.126H19.508V12.096H19.538ZM19.538 10.362H19.508V10.332H19.538V10.362ZM19.6087 10.4491L19.5817 10.4622V10.4622L19.6087 10.4491ZM19.82 10.422L19.794 10.4369L19.7936 10.4362L19.82 10.422ZM19.796 10.044L19.7678 10.0338L19.7962 9.95583L19.8243 10.0338L19.796 10.044ZM19.958 10.152L19.9291 10.1597L19.929 10.1595L19.958 10.152ZM19.9028 10.0271L19.9288 10.0122V10.0122L19.9028 10.0271ZM19.886 9.71401L19.8581 9.7031L19.8993 9.59763L19.9157 9.70964L19.886 9.71401ZM20.018 9.79201L20.0471 9.78443L20.0471 9.78473L20.018 9.79201ZM19.9875 9.70223L19.9595 9.71309V9.71309L19.9875 9.70223ZM20 9.40201L19.9732 9.38859L20.0098 9.31534L20.0292 9.39491L20 9.40201ZM20.12 9.4608L20.09 9.46082V9.46082L20.12 9.4608ZM20.372 8.97601L20.4019 8.97899L20.3999 8.99892L20.3807 9.00472L20.372 8.97601ZM20.594 8.97601L20.5852 9.00466L20.5662 8.99878L20.5642 8.97899L20.594 8.97601ZM20.966 9.40201L20.9369 9.39491L20.9562 9.31534L20.9929 9.38859L20.966 9.40201ZM20.9786 9.70223L20.9506 9.69138L20.9506 9.69138L20.9786 9.70223ZM20.948 9.79201L20.9189 9.78473L20.919 9.78443L20.948 9.79201ZM21.08 9.71401L21.0504 9.70964L21.0668 9.59763L21.108 9.7031L21.08 9.71401ZM21.0633 10.0271L21.0372 10.0122V10.0122L21.0633 10.0271ZM21.008 10.152L21.0371 10.1595L21.037 10.1597L21.008 10.152ZM21.17 10.044L21.1418 10.0338L21.1699 9.95583L21.1982 10.0338L21.17 10.044ZM21.146 10.422L21.1725 10.4363L21.1713 10.4382L21.146 10.422ZM21.3574 10.4452L21.3303 10.4324H21.3303L21.3574 10.4452ZM21.842 10.782L21.8579 10.7566L21.872 10.7654V10.782H21.842ZM21.842 12.108H21.872V12.138H21.842V12.108ZM21.692 10.782H21.662V10.7644L21.6775 10.7558L21.692 10.782ZM21.692 12.108V12.138H21.662V12.108H21.692ZM21.398 12.096V10.356H21.458V12.096H21.398ZM19.538 12.066H21.428V12.126H19.538V12.066ZM19.568 10.362V12.096H19.508V10.362H19.568ZM19.5817 10.4622C19.5698 10.4376 19.5604 10.4184 19.5509 10.405C19.5463 10.3986 19.5428 10.395 19.5403 10.3932C19.5392 10.3924 19.5385 10.3921 19.5383 10.3921C19.5381 10.392 19.5381 10.392 19.538 10.392V10.332C19.5677 10.332 19.5874 10.3528 19.5999 10.3703C19.6129 10.3886 19.6245 10.413 19.6357 10.4361L19.5817 10.4622ZM19.79 10.644C19.7286 10.644 19.6844 10.6155 19.652 10.5787C19.6206 10.543 19.599 10.4979 19.5817 10.4622L19.6357 10.4361C19.6537 10.4732 19.672 10.5106 19.697 10.5391C19.7211 10.5664 19.75 10.584 19.79 10.584V10.644ZM19.8461 10.4071C19.8717 10.4519 19.8895 10.5058 19.8867 10.5513C19.8854 10.5744 19.8784 10.5982 19.8613 10.6164C19.8436 10.6352 19.8188 10.644 19.79 10.644V10.584C19.8063 10.584 19.8137 10.5793 19.8176 10.5752C19.822 10.5706 19.826 10.5621 19.8268 10.5477C19.8286 10.5182 19.8164 10.4761 19.794 10.4369L19.8461 10.4071ZM19.8242 10.0543C19.7897 10.1492 19.7861 10.219 19.7949 10.2732C19.8038 10.3277 19.8255 10.3688 19.8465 10.4078L19.7936 10.4362C19.7726 10.3972 19.7463 10.3483 19.7357 10.2828C19.725 10.217 19.7304 10.1368 19.7678 10.0338L19.8242 10.0543ZM19.987 10.1443C19.9938 10.1695 19.9942 10.2032 19.9657 10.22C19.9531 10.2275 19.9392 10.2283 19.9274 10.2266C19.9155 10.225 19.9035 10.2205 19.8922 10.2145C19.8477 10.1909 19.7968 10.1348 19.7678 10.0542L19.8243 10.0338C19.8492 10.1032 19.8914 10.1461 19.9204 10.1615C19.9274 10.1653 19.9326 10.1668 19.9357 10.1672C19.939 10.1677 19.938 10.1667 19.9352 10.1684C19.9264 10.1736 19.9343 10.1795 19.9291 10.1597L19.987 10.1443ZM19.9288 10.0122C19.9492 10.048 19.9727 10.0891 19.9871 10.1445L19.929 10.1595C19.9168 10.1127 19.8971 10.0778 19.8767 10.0419L19.9288 10.0122ZM19.914 9.72491C19.8823 9.80607 19.877 9.85953 19.8829 9.9003C19.8889 9.94145 19.9065 9.97301 19.9288 10.0122L19.8767 10.0419C19.8549 10.0036 19.8313 9.9628 19.8235 9.90889C19.8157 9.85458 19.8241 9.79028 19.8581 9.7031L19.914 9.72491ZM20.0471 9.78473C20.0557 9.81886 20.0543 9.85093 20.04 9.87466C20.0326 9.88687 20.0218 9.89658 20.0082 9.90183C19.9946 9.90707 19.9802 9.90715 19.9666 9.90345C19.9401 9.89622 19.9164 9.87479 19.898 9.84483C19.8792 9.81432 19.8643 9.77234 19.8564 9.71837L19.9157 9.70964C19.9228 9.75767 19.9356 9.79144 19.9491 9.81343C19.9629 9.83597 19.9759 9.84379 19.9824 9.84556C19.9854 9.84636 19.9865 9.84588 19.9866 9.84586C19.9867 9.84582 19.9868 9.84574 19.9871 9.8455C19.9874 9.84524 19.988 9.84468 19.9886 9.8436C19.9915 9.83883 19.9954 9.82515 19.9889 9.79928L20.0471 9.78473ZM20.0154 9.69138C20.026 9.71859 20.0378 9.74902 20.0471 9.78443L19.989 9.79958C19.9808 9.76795 19.9701 9.74053 19.9595 9.71309L20.0154 9.69138ZM20.0269 9.41542C19.9921 9.48499 19.9825 9.5337 19.9841 9.57352C19.9857 9.61401 19.9987 9.64822 20.0154 9.69138L19.9595 9.71309C19.9432 9.67107 19.9262 9.62785 19.9241 9.57586C19.9221 9.5232 19.9353 9.46438 19.9732 9.38859L20.0269 9.41542ZM20.15 9.47401C20.15 9.5101 20.1458 9.54127 20.1366 9.56362C20.1321 9.5747 20.1251 9.58648 20.1141 9.59458C20.1016 9.60374 20.0862 9.60643 20.0711 9.60156C20.0577 9.59725 20.0471 9.5879 20.0388 9.57807C20.0302 9.56791 20.0222 9.5549 20.0147 9.53959C19.9996 9.50894 19.9847 9.46575 19.9709 9.4091L20.0292 9.39491C20.0424 9.44926 20.056 9.48782 20.0685 9.51305C20.0747 9.52568 20.0802 9.53413 20.0847 9.53939C20.0894 9.54499 20.0912 9.54501 20.0895 9.54445C20.086 9.54333 20.0814 9.54414 20.0785 9.54623C20.0772 9.54725 20.0787 9.54674 20.0811 9.54076C20.086 9.52899 20.09 9.50691 20.09 9.47401H20.15ZM20.15 9.46078C20.15 9.46519 20.15 9.4696 20.15 9.47401H20.09C20.09 9.46963 20.09 9.46524 20.09 9.46082L20.15 9.46078ZM20.3807 9.00472C20.2638 9.04008 20.2079 9.10568 20.1796 9.18421C20.1502 9.2657 20.15 9.36224 20.15 9.46078L20.09 9.46082C20.09 9.3648 20.0896 9.25708 20.1232 9.16387C20.1578 9.06771 20.228 8.9882 20.3634 8.94729L20.3807 9.00472ZM20.48 8.82601C20.4689 8.82601 20.4586 8.83116 20.4481 8.84356C20.4371 8.85643 20.4279 8.87502 20.4206 8.89592C20.4134 8.91647 20.4087 8.93734 20.4058 8.95329C20.4043 8.96121 20.4033 8.96777 20.4027 8.97231C20.4024 8.97457 20.4022 8.97632 20.4021 8.97746C20.402 8.97803 20.4019 8.97845 20.4019 8.97871C20.4019 8.97884 20.4019 8.97893 20.4019 8.97898C20.4019 8.979 20.4019 8.97901 20.4019 8.97902C20.4019 8.97902 20.4019 8.97902 20.4019 8.97901C20.4019 8.97901 20.4019 8.979 20.4019 8.979C20.4019 8.979 20.4019 8.97899 20.372 8.97601C20.3422 8.97302 20.3422 8.97301 20.3422 8.973C20.3422 8.973 20.3422 8.97299 20.3422 8.97298C20.3422 8.97297 20.3422 8.97295 20.3422 8.97293C20.3422 8.97289 20.3422 8.97284 20.3422 8.97277C20.3422 8.97265 20.3422 8.97248 20.3423 8.97227C20.3423 8.97184 20.3424 8.97125 20.3425 8.97051C20.3426 8.96902 20.3429 8.9669 20.3433 8.96424C20.344 8.95892 20.3451 8.95143 20.3468 8.94247C20.35 8.92467 20.3554 8.90054 20.364 8.87609C20.3724 8.85199 20.3846 8.82558 20.4023 8.8047C20.4205 8.78336 20.4462 8.76601 20.48 8.76601V8.82601ZM20.594 8.97601C20.5642 8.97899 20.5642 8.979 20.5642 8.979C20.5642 8.979 20.5642 8.97901 20.5642 8.97901C20.5642 8.97902 20.5642 8.97902 20.5642 8.97902C20.5642 8.97902 20.5642 8.97901 20.5642 8.97898C20.5642 8.97894 20.5642 8.97885 20.5642 8.97873C20.5641 8.97847 20.5641 8.97806 20.564 8.97749C20.5639 8.97636 20.5637 8.97462 20.5634 8.97237C20.5627 8.96787 20.5617 8.96133 20.5602 8.95345C20.5572 8.93756 20.5524 8.91678 20.5449 8.89633C20.5373 8.87557 20.5276 8.85706 20.5161 8.8442C20.505 8.83188 20.4934 8.82601 20.48 8.82601V8.76601C20.5147 8.76601 20.5414 8.78263 20.5607 8.80406C20.5795 8.82495 20.5923 8.85144 20.6012 8.87568C20.6102 8.90023 20.6158 8.92445 20.6192 8.94231C20.6209 8.9513 20.6221 8.95883 20.6228 8.96417C20.6232 8.96684 20.6234 8.96897 20.6236 8.97047C20.6237 8.97123 20.6238 8.97182 20.6238 8.97225C20.6238 8.97246 20.6239 8.97264 20.6239 8.97276C20.6239 8.97283 20.6239 8.97288 20.6239 8.97293C20.6239 8.97295 20.6239 8.97297 20.6239 8.97298C20.6239 8.97299 20.6239 8.973 20.6239 8.973C20.6239 8.97301 20.6239 8.97302 20.594 8.97601ZM20.816 9.47401C20.816 9.37072 20.8157 9.27122 20.7863 9.18774C20.7578 9.10723 20.7019 9.0408 20.5852 9.00466L20.6029 8.94735C20.7382 8.98921 20.8082 9.06978 20.8428 9.16777C20.8764 9.26279 20.876 9.37329 20.876 9.47401H20.816ZM20.9952 9.4091C20.9814 9.46575 20.9665 9.50894 20.9514 9.53959C20.9439 9.5549 20.9358 9.56791 20.9273 9.57807C20.919 9.5879 20.9083 9.59725 20.895 9.60156C20.8799 9.60643 20.8645 9.60374 20.852 9.59458C20.841 9.58648 20.834 9.5747 20.8295 9.56362C20.8202 9.54127 20.816 9.5101 20.816 9.47401H20.876C20.876 9.50691 20.8801 9.52899 20.8849 9.54076C20.8874 9.54674 20.8889 9.54725 20.8875 9.54623C20.8847 9.54414 20.8801 9.54333 20.8766 9.54445C20.8749 9.54501 20.8767 9.54499 20.8814 9.53939C20.8858 9.53413 20.8914 9.52568 20.8976 9.51305C20.9101 9.48782 20.9237 9.44926 20.9369 9.39491L20.9952 9.4091ZM20.9506 9.69138C20.9674 9.64822 20.9804 9.61401 20.982 9.57352C20.9836 9.5337 20.974 9.48499 20.9392 9.41542L20.9929 9.38859C21.0308 9.46438 21.044 9.5232 21.042 9.57586C21.0399 9.62785 21.0229 9.67107 21.0066 9.71309L20.9506 9.69138ZM20.919 9.78443C20.9283 9.74902 20.9401 9.71859 20.9506 9.69138L21.0066 9.71309C20.9959 9.74053 20.9853 9.76795 20.9771 9.79958L20.919 9.78443ZM21.1097 9.71837C21.1018 9.77234 21.0868 9.81432 21.0681 9.84483C21.0497 9.87479 21.0259 9.89622 20.9994 9.90345C20.9859 9.90715 20.9715 9.90707 20.9579 9.90183C20.9443 9.89658 20.9335 9.88687 20.9261 9.87466C20.9118 9.85093 20.9104 9.81886 20.9189 9.78473L20.9771 9.79928C20.9707 9.82515 20.9746 9.83883 20.9775 9.8436C20.9781 9.84468 20.9787 9.84524 20.979 9.8455C20.9792 9.84574 20.9794 9.84582 20.9795 9.84586C20.9796 9.84588 20.9807 9.84636 20.9836 9.84556C20.9901 9.84379 21.0031 9.83597 21.017 9.81343C21.0305 9.79144 21.0433 9.75767 21.0504 9.70964L21.1097 9.71837ZM21.0372 10.0122C21.0596 9.97301 21.0772 9.94145 21.0832 9.9003C21.0891 9.85953 21.0838 9.80607 21.0521 9.72491L21.108 9.7031C21.142 9.79028 21.1504 9.85458 21.1426 9.90889C21.1348 9.9628 21.1112 10.0036 21.0894 10.0419L21.0372 10.0122ZM20.979 10.1445C20.9934 10.0891 21.0169 10.048 21.0372 10.0122L21.0894 10.0419C21.069 10.0778 21.0492 10.1127 21.0371 10.1595L20.979 10.1445ZM21.1983 10.0542C21.1692 10.1348 21.1184 10.1909 21.0739 10.2145C21.0625 10.2205 21.0506 10.225 21.0387 10.2266C21.0269 10.2283 21.013 10.2275 21.0004 10.22C20.9719 10.2032 20.9723 10.1695 20.9791 10.1443L21.037 10.1597C21.0318 10.1795 21.0397 10.1736 21.0309 10.1684C21.0281 10.1667 21.0271 10.1677 21.0303 10.1672C21.0335 10.1668 21.0387 10.1653 21.0457 10.1615C21.0747 10.1461 21.1168 10.1032 21.1418 10.0338L21.1983 10.0542ZM21.1196 10.4078C21.1406 10.3688 21.1623 10.3277 21.1712 10.2732C21.18 10.219 21.1764 10.1492 21.1418 10.0543L21.1982 10.0338C21.2357 10.1368 21.2411 10.217 21.2304 10.2828C21.2198 10.3483 21.1935 10.3972 21.1725 10.4362L21.1196 10.4078ZM21.176 10.644C21.1473 10.644 21.1224 10.6352 21.1044 10.6169C21.0868 10.599 21.079 10.5754 21.0771 10.5519C21.0734 10.5058 21.0916 10.4513 21.1208 10.4058L21.1713 10.4382C21.1465 10.4767 21.1346 10.5182 21.1369 10.5471C21.1381 10.5612 21.1423 10.5698 21.1472 10.5748C21.1517 10.5793 21.1598 10.584 21.176 10.584V10.644ZM21.3845 10.458C21.3672 10.4946 21.3457 10.5406 21.3143 10.5771C21.282 10.6147 21.2378 10.644 21.176 10.644V10.584C21.2158 10.584 21.2446 10.5662 21.2688 10.538C21.2939 10.5087 21.3123 10.4704 21.3303 10.4324L21.3845 10.458ZM21.428 10.386C21.428 10.386 21.428 10.386 21.4281 10.386C21.4281 10.386 21.4281 10.386 21.4281 10.386C21.4282 10.386 21.4281 10.386 21.428 10.386C21.4278 10.3861 21.4272 10.3864 21.4261 10.3872C21.4236 10.389 21.42 10.3927 21.4153 10.3994C21.4058 10.4131 21.3964 10.4328 21.3845 10.458L21.3303 10.4324C21.3414 10.4088 21.3531 10.3839 21.366 10.3652C21.3783 10.3475 21.3981 10.326 21.428 10.326V10.386ZM21.872 10.782V12.108H21.812V10.782H21.872ZM21.6775 10.7558C21.7078 10.739 21.7383 10.7295 21.7693 10.7295C21.8005 10.7295 21.83 10.7391 21.8579 10.7566L21.8261 10.8074C21.8061 10.7949 21.7876 10.7895 21.7693 10.7895C21.7508 10.7895 21.7303 10.7951 21.7066 10.8082L21.6775 10.7558ZM21.662 12.108V10.782H21.722V12.108H21.662ZM21.842 12.138H21.692V12.078H21.842V12.138Z" fill="black"/>
<path fill-rule="evenodd" clip-rule="evenodd" d="M19.238 12.108V11.244C19.208 11.22 19.154 11.226 19.118 11.244V12.108H19.238ZM21.41 12.108C21.458 11.85 21.644 11.736 21.83 11.64V12.108H21.41Z" fill="white"/>
<path d="M19.238 11.244L19.2568 11.2206L19.268 11.2296V11.244H19.238ZM19.238 12.108H19.268V12.138H19.238V12.108ZM19.118 11.244H19.088V11.2255L19.1046 11.2172L19.118 11.244ZM19.118 12.108V12.138H19.088V12.108H19.118ZM21.83 11.64L21.8163 11.6133L21.86 11.5908V11.64H21.83ZM21.41 12.108V12.138H21.3739L21.3805 12.1025L21.41 12.108ZM21.83 12.108H21.86V12.138H21.83V12.108ZM19.268 11.244V12.108H19.208V11.244H19.268ZM19.1046 11.2172C19.1264 11.2063 19.1531 11.1992 19.1792 11.1983C19.205 11.1974 19.2341 11.2024 19.2568 11.2206L19.2193 11.2674C19.2119 11.2616 19.1991 11.2576 19.1813 11.2582C19.1639 11.2588 19.1457 11.2637 19.1314 11.2708L19.1046 11.2172ZM19.088 12.108V11.244H19.148V12.108H19.088ZM19.238 12.138H19.118V12.078H19.238V12.138ZM21.8438 11.6667C21.6583 11.7624 21.4847 11.8706 21.4395 12.1135L21.3805 12.1025C21.4313 11.8294 21.6297 11.7096 21.8163 11.6133L21.8438 11.6667ZM21.8 12.108V11.64H21.86V12.108H21.8ZM21.41 12.078H21.83V12.138H21.41V12.078Z" fill="black"/>
<path fill-rule="evenodd" clip-rule="evenodd" d="M20.246 9.52799L20.354 9.61799H20.624L20.732 9.52199V9.40199C20.69 9.41399 20.672 9.41999 20.642 9.46199C20.6157 9.38529 20.5594 9.32252 20.486 9.28799C20.4137 9.32518 20.3595 9.39014 20.336 9.46799C20.306 9.42599 20.282 9.40799 20.246 9.40799V9.52799ZM19.538 12.102C19.49 11.838 19.304 11.73 19.118 11.64V12.102H19.538Z" fill="white"/>
<path d="M20.354 9.61799V9.64799H20.3431L20.3348 9.64104L20.354 9.61799ZM20.246 9.52799L20.2268 9.55104L20.216 9.54205V9.52799H20.246ZM20.624 9.61799L20.6439 9.64042L20.6354 9.64799H20.624V9.61799ZM20.732 9.52199H20.762V9.53547L20.7519 9.54442L20.732 9.52199ZM20.732 9.40199L20.7238 9.37315L20.762 9.36222V9.40199H20.732ZM20.642 9.46199L20.6664 9.47943L20.6325 9.52684L20.6136 9.47174L20.642 9.46199ZM20.486 9.28799L20.4723 9.26131L20.4854 9.25456L20.4988 9.26085L20.486 9.28799ZM20.336 9.46799L20.3647 9.47667L20.3471 9.53509L20.3116 9.48543L20.336 9.46799ZM20.246 9.40799H20.216V9.37799H20.246V9.40799ZM19.118 11.64H19.088V11.5922L19.1311 11.613L19.118 11.64ZM19.538 12.102L19.5675 12.0966L19.5739 12.132H19.538V12.102ZM19.118 12.102V12.132H19.088V12.102H19.118ZM20.3348 9.64104L20.2268 9.55104L20.2652 9.50495L20.3732 9.59495L20.3348 9.64104ZM20.624 9.64799H20.354V9.58799H20.624V9.64799ZM20.7519 9.54442L20.6439 9.64042L20.6041 9.59557L20.7121 9.49957L20.7519 9.54442ZM20.762 9.40199V9.52199H20.702V9.40199H20.762ZM20.6176 9.44456C20.6338 9.42185 20.6486 9.40632 20.6669 9.39515C20.6844 9.38442 20.7034 9.37896 20.7238 9.37315L20.7402 9.43084C20.7186 9.43703 20.7076 9.44057 20.6981 9.44634C20.6894 9.45167 20.6802 9.46014 20.6664 9.47943L20.6176 9.44456ZM20.4988 9.26085C20.5795 9.29883 20.6414 9.36788 20.6704 9.45225L20.6136 9.47174C20.5899 9.40271 20.5393 9.34622 20.4732 9.31514L20.4988 9.26085ZM20.3073 9.45931C20.3332 9.37368 20.3927 9.30222 20.4723 9.26131L20.4997 9.31467C20.4346 9.34814 20.3859 9.40661 20.3647 9.47667L20.3073 9.45931ZM20.246 9.37799C20.2697 9.37799 20.2907 9.38415 20.3102 9.39749C20.3287 9.41018 20.3447 9.42852 20.3604 9.45056L20.3116 9.48543C20.2973 9.46547 20.2863 9.45381 20.2763 9.447C20.2673 9.44084 20.2583 9.43799 20.246 9.43799V9.37799ZM20.216 9.52799V9.40799H20.276V9.52799H20.216ZM19.1311 11.613C19.3179 11.7034 19.5167 11.8171 19.5675 12.0966L19.5085 12.1074C19.4633 11.8589 19.2901 11.7566 19.1049 11.667L19.1311 11.613ZM19.088 12.102V11.64H19.148V12.102H19.088ZM19.538 12.132H19.118V12.072H19.538V12.132Z" fill="black"/>
<path d="M20.294 9.912L20.246 9.798V9.648C20.282 9.648 20.306 9.666 20.336 9.708C20.3595 9.63015 20.4137 9.56519 20.486 9.528C20.5594 9.56253 20.6157 9.6253 20.642 9.702C20.672 9.66 20.69 9.654 20.732 9.648V9.798L20.684 9.912H20.294Z" fill="white" stroke="black" stroke-width="0.06"/>
<path d="M20.282 10.308L20.126 10.11V9.918C20.186 9.918 20.216 9.948 20.258 10.014C20.3 9.876 20.378 9.852 20.486 9.786C20.6 9.846 20.678 9.876 20.714 10.008C20.762 9.942 20.792 9.924 20.852 9.918V10.11L20.69 10.308H20.282Z" fill="white" stroke="black" stroke-width="0.06"/>
<path d="M20.24 10.698C20.24 10.698 20.048 10.536 20.042 10.446V10.236C20.114 10.242 20.18 10.26 20.234 10.35C20.282 10.176 20.354 10.128 20.486 10.05C20.624 10.128 20.696 10.176 20.738 10.35C20.798 10.26 20.858 10.242 20.936 10.23V10.446C20.8856 10.5412 20.8186 10.6265 20.738 10.698H20.24Z" fill="white" stroke="black" stroke-width="0.06"/>
<path d="M20.162 11.418C20.162 11.418 19.898 11.136 19.892 11.022V10.698C19.988 10.71 20.084 10.776 20.156 10.914C20.216 10.644 20.312 10.458 20.486 10.326C20.666 10.458 20.762 10.644 20.822 10.914C20.894 10.776 20.984 10.71 21.08 10.698V11.022C21.062 11.136 20.816 11.418 20.816 11.418H20.162Z" fill="white" stroke="black" stroke-width="0.06"/>
<path d="M20.162 11.844C20.162 11.844 19.94 11.622 19.892 11.526V11.202C19.988 11.214 20.084 11.28 20.156 11.412C20.1884 11.1915 20.3071 10.9929 20.486 10.86C20.666 10.992 20.762 11.142 20.822 11.412C20.894 11.28 20.984 11.214 21.08 11.202V11.526C21.02 11.622 20.816 11.844 20.816 11.844H20.162Z" fill="white" stroke="black" stroke-width="0.06"/>
<path d="M20.072 12.096C20.132 11.814 20.192 11.604 20.498 11.394C20.81 11.604 20.864 11.814 20.93 12.096H20.072Z" fill="white" stroke="black" stroke-width="0.06"/>
<path d="M19.91 12.252V11.844C20.054 11.904 20.18 11.982 20.228 12.072C20.276 11.844 20.378 11.748 20.504 11.61C20.63 11.748 20.714 11.85 20.768 12.072C20.816 11.982 20.942 11.898 21.08 11.844V12.252H19.91Z" fill="white" stroke="black" stroke-width="0.06"/>
<path fill-rule="evenodd" clip-rule="evenodd" d="M22.58 14.43H9.41601V14.916H22.58V14.43ZM8.64201 15.558H23.36V16.308H23.75V17.058H8.25201V16.308H8.64201V15.558Z" fill="white"/>
<path d="M9.41601 14.43V14.4H9.38601V14.43H9.41601ZM22.58 14.43H22.61V14.4H22.58V14.43ZM9.41601 14.916H9.38601V14.946H9.41601V14.916ZM22.58 14.916V14.946H22.61V14.916H22.58ZM23.36 15.558H23.39V15.528H23.36V15.558ZM8.64201 15.558V15.528H8.61201V15.558H8.64201ZM23.36 16.308H23.33V16.338H23.36V16.308ZM23.75 16.308H23.78V16.278H23.75V16.308ZM23.75 17.058V17.088H23.78V17.058H23.75ZM8.25201 17.058H8.22201V17.088H8.25201V17.058ZM8.25201 16.308V16.278H8.22201V16.308H8.25201ZM8.64201 16.308V16.338H8.67201V16.308H8.64201ZM9.41601 14.46H22.58V14.4H9.41601V14.46ZM9.44601 14.916V14.43H9.38601V14.916H9.44601ZM22.58 14.886H9.41601V14.946H22.58V14.886ZM22.55 14.43V14.916H22.61V14.43H22.55ZM23.36 15.528H8.64201V15.588H23.36V15.528ZM23.39 16.308V15.558H23.33V16.308H23.39ZM23.75 16.278H23.36V16.338H23.75V16.278ZM23.78 17.058V16.308H23.72V17.058H23.78ZM8.25201 17.088H23.75V17.028H8.25201V17.088ZM8.22201 16.308V17.058H8.28201V16.308H8.22201ZM8.64201 16.278H8.25201V16.338H8.64201V16.278ZM8.61201 15.558V16.308H8.67201V15.558H8.61201Z" fill="black"/>
<path fill-rule="evenodd" clip-rule="evenodd" d="M22.364 14.058H9.64404V14.43H22.364V14.058ZM22.976 14.916H9.03204V15.552H22.976V14.916Z" fill="white"/>
<path d="M9.64404 14.058V14.028H9.61404V14.058H9.64404ZM22.364 14.058H22.394V14.028H22.364V14.058ZM9.64404 14.43H9.61404V14.46H9.64404V14.43ZM22.364 14.43V14.46H22.394V14.43H22.364ZM9.03204 14.916V14.886H9.00204V14.916H9.03204ZM22.976 14.916H23.006V14.886H22.976V14.916ZM9.03204 15.552H9.00204V15.582H9.03204V15.552ZM22.976 15.552V15.582H23.006V15.552H22.976ZM9.64404 14.088H22.364V14.028H9.64404V14.088ZM9.67404 14.43V14.058H9.61404V14.43H9.67404ZM22.364 14.4H9.64404V14.46H22.364V14.4ZM22.334 14.058V14.43H22.394V14.058H22.334ZM9.03204 14.946H22.976V14.886H9.03204V14.946ZM9.06204 15.552V14.916H9.00204V15.552H9.06204ZM22.976 15.522H9.03204V15.582H22.976V15.522ZM22.946 14.916V15.552H23.006V14.916H22.946Z" fill="black"/>
<path d="M11.024 14.058H11.984V17.058H11.024V14.058Z" fill="white" stroke="black" stroke-width="0.06"/>
<path fill-rule="evenodd" clip-rule="evenodd" d="M11.774 14.058H11.24L11.234 17.058H11.774V14.058ZM16.46 14.058H15.5V17.058H16.46V14.058Z" fill="white"/>
<path d="M11.24 14.058V14.028H11.2101L11.21 14.0579L11.24 14.058ZM11.774 14.058H11.804V14.028H11.774V14.058ZM11.234 17.058L11.204 17.0579L11.2039 17.088H11.234V17.058ZM11.774 17.058V17.088H11.804V17.058H11.774ZM15.5 14.058V14.028H15.47V14.058H15.5ZM16.46 14.058H16.49V14.028H16.46V14.058ZM15.5 17.058H15.47V17.088H15.5V17.058ZM16.46 17.058V17.088H16.49V17.058H16.46ZM11.24 14.088H11.774V14.028H11.24V14.088ZM11.264 17.0581L11.27 14.0581L11.21 14.0579L11.204 17.0579L11.264 17.0581ZM11.774 17.028H11.234V17.088H11.774V17.028ZM11.744 14.058V17.058H11.804V14.058H11.744ZM15.5 14.088H16.46V14.028H15.5V14.088ZM15.53 17.058V14.058H15.47V17.058H15.53ZM16.46 17.028H15.5V17.088H16.46V17.028ZM16.43 14.058V17.058H16.49V14.058H16.43Z" fill="black"/>
<path fill-rule="evenodd" clip-rule="evenodd" d="M16.262 14.058H15.722V17.058H16.262V14.058ZM20.972 14.058H20.012V17.058H20.972V14.058Z" fill="white"/>
<path d="M15.722 14.058V14.028H15.692V14.058H15.722ZM16.262 14.058H16.292V14.028H16.262V14.058ZM15.722 17.058H15.692V17.088H15.722V17.058ZM16.262 17.058V17.088H16.292V17.058H16.262ZM20.012 14.058V14.028H19.982V14.058H20.012ZM20.972 14.058H21.002V14.028H20.972V14.058ZM20.012 17.058H19.982V17.088H20.012V17.058ZM20.972 17.058V17.088H21.002V17.058H20.972ZM15.722 14.088H16.262V14.028H15.722V14.088ZM15.752 17.058V14.058H15.692V17.058H15.752ZM16.262 17.028H15.722V17.088H16.262V17.028ZM16.232 14.058V17.058H16.292V14.058H16.232ZM20.012 14.088H20.972V14.028H20.012V14.088ZM20.042 17.058V14.058H19.982V17.058H20.042ZM20.972 17.028H20.012V17.088H20.972V17.028ZM20.942 14.058V17.058H21.002V14.058H20.942Z" fill="black"/>
<path d="M20.222 14.058H20.762V17.058H20.222V14.058Z" fill="white" stroke="black" stroke-width="0.06"/>
<path d="M10.22 13.802H21.8V13.742H10.22V13.802ZM11.228 16.73H11.78V16.67H11.228V16.73ZM11.228 16.352H11.78V16.292H11.228V16.352ZM11.228 15.98H11.78V15.92H11.228V15.98ZM11.228 15.602H11.78V15.542H11.228V15.602ZM11.228 15.23H11.78V15.17H11.228V15.23ZM11.228 14.852H11.78V14.792H11.228V14.852ZM11.228 14.48H11.78V14.42H11.228V14.48ZM15.728 16.73H16.244V16.67H15.728V16.73ZM15.728 16.352H16.244V16.292H15.728V16.352ZM15.728 15.98H16.244V15.92H15.728V15.98ZM15.728 15.602H16.244V15.542H15.728V15.602ZM15.728 15.23H16.244V15.17H15.728V15.23ZM15.728 14.852H16.244V14.792H15.728V14.852ZM15.728 14.48H16.244V14.42H15.728V14.48ZM20.216 16.73H20.768V16.67H20.216V16.73ZM20.216 16.352H20.768V16.292H20.216V16.352ZM20.216 15.98H20.768V15.92H20.216V15.98ZM20.216 15.602H20.768V15.542H20.216V15.602ZM20.216 15.23H20.768V15.17H20.216V15.23ZM20.216 14.852H20.768V14.792H20.216V14.852ZM20.216 14.48H20.768V14.42H20.216V14.48Z" fill="black"/>
</g>
</svg>
