<svg width="512" height="512" viewBox="0 0 512 512" fill="none" xmlns="http://www.w3.org/2000/svg">
<g clip-path="url(#clip0_4_7114)">
<path d="M0 256C0 300.35 11.283 342.064 31.127 378.435L256 400.696L480.873 378.435C500.717 342.064 512 300.35 512 256C512 211.65 500.717 169.936 480.873 133.565L256 111.304L31.127 133.565C11.283 169.936 0 211.65 0 256H0Z" fill="#D80027"/>
<path d="M31.127 133.565H480.872C437.454 53.989 353.035 0 256 0C158.965 0 74.546 53.989 31.127 133.565Z" fill="#0052B4"/>
<path d="M256 512C353.035 512 437.454 458.011 480.873 378.435H31.127C74.546 458.011 158.965 512 256 512Z" fill="#0052B4"/>
<path d="M345.042 306.087V272.696H322.782V228.174L300.521 205.913L278.26 228.174V183.652L255.999 161.391L233.738 183.652V228.174L211.477 205.913L189.216 228.174V272.696H166.956V306.087H144.695V339.478H367.303V306.087H345.042Z" fill="#F0F0F0"/>
</g>
<defs>
<clipPath id="clip0_4_7114">
<rect width="512" height="512" fill="white"/>
</clipPath>
</defs>
</svg>
