<svg width="20" height="21" viewBox="0 0 20 21" fill="none" xmlns="http://www.w3.org/2000/svg">
<path d="M11.1814 0.579558C10.9748 0.391626 10.7223 0.242711 10.4408 0.142832C10.1594 0.0429521 9.85548 -0.00557669 9.54961 0.000509193C9.24373 0.00659508 8.94297 0.0671547 8.66755 0.178115C8.39212 0.289074 8.14843 0.447862 7.95286 0.643795L0 8.60451V19.2156C0 19.6889 0.225764 20.1427 0.627628 20.4774C1.02949 20.812 1.57454 21 2.14286 21H4.7C5.26832 21 5.81337 20.812 6.21523 20.4774C6.61709 20.1427 6.84286 19.6889 6.84286 19.2156V15.6338C6.84286 15.1605 7.06862 14.7067 7.47049 14.372C7.87235 14.0374 8.41739 13.8494 8.98571 13.8494H11.0143C11.5826 13.8494 12.1277 14.0374 12.5295 14.372C12.9314 14.7067 13.1571 15.1605 13.1571 15.6338V19.2156C13.1571 19.6889 13.3829 20.1427 13.7848 20.4774C14.1866 20.812 14.7317 21 15.3 21H17.8571C18.4255 21 18.9705 20.812 19.3724 20.4774C19.7742 20.1427 20 19.6889 20 19.2156V8.60451L11.1814 0.579558Z" fill="#246BFD"/>
</svg>
