<svg width="20" height="21" viewBox="0 0 20 21" fill="none" xmlns="http://www.w3.org/2000/svg">
<path d="M9.56445 0.75C9.78212 0.745669 9.9963 0.780724 10.1904 0.849609C10.3845 0.918512 10.5489 1.01849 10.6768 1.13477V1.13379L19.25 8.93555V19.2158C19.2499 19.4412 19.1436 19.6924 18.8926 19.9014C18.6376 20.1137 18.2666 20.2499 17.8574 20.25H15.2998C14.8907 20.25 14.5197 20.1137 14.2646 19.9014C14.0137 19.6924 13.9073 19.4412 13.9072 19.2158V15.6338C13.9072 14.9128 13.5622 14.2561 13.0098 13.7959C12.4612 13.3391 11.7419 13.0997 11.0146 13.0996H8.98535C8.25813 13.0997 7.5388 13.3391 6.99023 13.7959C6.43775 14.2561 6.09277 14.9128 6.09277 15.6338V19.2158C6.09271 19.4412 5.98635 19.6924 5.73535 19.9014C5.48032 20.1137 5.10934 20.25 4.7002 20.25H2.14258C1.73344 20.2499 1.36243 20.1137 1.10742 19.9014C0.856424 19.6924 0.750063 19.4412 0.75 19.2158V8.91406L8.4834 1.17383C8.60242 1.05459 8.75977 0.949953 8.94824 0.874023C9.13658 0.79819 9.34691 0.754336 9.56445 0.75Z" stroke="#757575" stroke-width="1.5"/>
</svg>
