<svg width="50" height="50" viewBox="0 0 50 50" fill="none" xmlns="http://www.w3.org/2000/svg">
<g clip-path="url(#clip0_10_327)">
<path d="M42.4879 41.8211H35.2151V30.4317C35.2151 27.7158 35.1666 24.2196 31.4326 24.2196C27.6447 24.2196 27.0651 27.1787 27.0651 30.234V41.8204H19.7924V18.3992H26.7742V21.5999H26.872C27.5707 20.4053 28.5804 19.4225 29.7934 18.7563C31.0065 18.09 32.3776 17.7653 33.7606 17.8166C41.1318 17.8166 42.4909 22.6651 42.4909 28.9727L42.4879 41.8211ZM11.5863 15.1977C10.7516 15.1978 9.93559 14.9505 9.2415 14.4868C8.54733 14.0232 8.00627 13.3642 7.68672 12.593C7.36712 11.8219 7.28339 10.9733 7.44609 10.1546C7.60877 9.33591 8.01059 8.58379 8.60074 7.99341C9.19089 7.40309 9.94278 7.001 10.7615 6.83801C11.5801 6.67501 12.4288 6.75844 13.2 7.07774C13.9713 7.39703 14.6305 7.93788 15.0944 8.63182C15.5582 9.32576 15.8059 10.1417 15.806 10.9764C15.8061 11.5307 15.6971 12.0795 15.4851 12.5916C15.2731 13.1037 14.9623 13.569 14.5704 13.961C14.1786 14.353 13.7134 14.6639 13.2014 14.8761C12.6894 15.0883 12.1406 15.1976 11.5863 15.1977ZM15.2227 41.8211H7.9424V18.3992H15.2227V41.8211ZM46.1136 0.00297663H4.28787C3.33854 -0.00773653 2.42379 0.358882 1.74463 1.02227C1.06548 1.68566 0.67748 2.59154 0.665894 3.54085V45.5401C0.677083 46.4899 1.06484 47.3964 1.74397 48.0605C2.42311 48.7245 3.33807 49.0919 4.28787 49.0817H46.1136C47.0653 49.0937 47.9828 48.7274 48.6646 48.0633C49.3464 47.3993 49.7368 46.4917 49.75 45.5401V3.53782C49.7364 2.58662 49.3458 1.67972 48.664 1.01634C47.9821 0.352973 47.0648 -0.0125989 46.1136 -5.36737e-05V0.00297663Z" fill="#0A66C2"/>
</g>
<defs>
<clipPath id="clip0_10_327">
<rect width="50" height="49.2424" fill="white"/>
</clipPath>
</defs>
</svg>
