<svg width="25" height="25" viewBox="0 0 25 25" fill="none" xmlns="http://www.w3.org/2000/svg">
<path fill-rule="evenodd" clip-rule="evenodd" d="M13.0733 2.22724L17.9586 2.31491C20.4022 2.35877 22.3552 4.38314 22.3113 6.82874L22.1116 17.9559C22.0677 20.4016 20.0433 22.3555 17.5997 22.3117L12.7255 22.2242C10.2799 22.1803 8.3259 20.1549 8.36979 17.7093L8.38651 16.7775C8.39394 16.3636 8.73592 16.0336 9.14985 16.0411C9.56378 16.0485 9.8937 16.3905 9.88627 16.8044L9.86955 17.7363C9.84048 19.356 11.1337 20.6954 12.7524 20.7245L17.6266 20.8119C19.2434 20.8409 20.5828 19.5488 20.6118 17.929L20.8115 6.80183C20.8406 5.18309 19.5484 3.84369 17.9316 3.81467L13.0464 3.727C11.4347 3.69808 10.0984 4.98631 10.0694 6.59805L10.0525 7.5409C10.0451 7.95483 9.70311 8.28475 9.28918 8.27732C8.87524 8.26989 8.54533 7.92791 8.55275 7.51398L8.56968 6.57113C8.61346 4.13153 10.6347 2.18348 13.0733 2.22724Z" fill="black"/>
<mask id="mask0_46956_340" style="mask-type:luminance" maskUnits="userSpaceOnUse" x="1" y="11" width="15" height="3">
<path fill-rule="evenodd" clip-rule="evenodd" d="M15.2032 13.0172L1.66453 12.7742L1.69144 11.2745L15.2302 11.5175L15.2032 13.0172Z" fill="white"/>
</mask>
<g mask="url(#mask0_46956_340)">
<path fill-rule="evenodd" clip-rule="evenodd" d="M2.44122 11.2879L14.4803 11.504C14.8942 11.5114 15.2241 11.8534 15.2167 12.2673C15.2093 12.6813 14.8673 13.0112 14.4534 13.0038L2.41431 12.7877C2.00037 12.7803 1.67046 12.4383 1.67788 12.0244C1.68531 11.6104 2.02729 11.2805 2.44122 11.2879Z" fill="black"/>
</g>
<mask id="mask1_46956_340" style="mask-type:luminance" maskUnits="userSpaceOnUse" x="1" y="8" width="6" height="8">
<path fill-rule="evenodd" clip-rule="evenodd" d="M6.03894 15.7679L1.6123 15.6885L1.74384 8.35893L6.17048 8.43837L6.03894 15.7679Z" fill="white"/>
</mask>
<g mask="url(#mask1_46956_340)">
<path fill-rule="evenodd" clip-rule="evenodd" d="M5.42084 8.42492C5.61281 8.42837 5.80447 8.50482 5.94779 8.65541C6.23447 8.95461 6.22497 9.42851 5.92677 9.71521L3.49037 12.0569L5.8412 14.4834C6.12892 14.7806 6.12241 15.2546 5.82418 15.5433C5.52696 15.832 5.05303 15.8235 4.76432 15.5263L1.88909 12.5592C1.74963 12.4167 1.67409 12.2233 1.67766 12.0243C1.68123 11.8254 1.76366 11.6348 1.90815 11.4974L4.888 8.63439C5.0366 8.49104 5.22988 8.42149 5.42084 8.42492Z" fill="black"/>
</g>
</svg>
