<svg width="20" height="20" viewBox="0 0 20 20" fill="none" xmlns="http://www.w3.org/2000/svg">
<path d="M17.0123 2.94228C15.3794 1.29622 13.2242 0.272309 10.9182 0.0470813C8.61229 -0.178146 6.30014 0.409421 4.38039 1.70848C2.46065 3.00755 1.05362 4.9367 0.401878 7.16335C-0.249864 9.39 -0.105474 11.7746 0.810154 13.9061C0.905586 14.1042 0.936898 14.3272 0.899724 14.544L0.023929 18.76C-0.00981273 18.9217 -0.0029226 19.0892 0.0439803 19.2475C0.0908832 19.4058 0.176329 19.55 0.292639 19.6671C0.387985 19.7619 0.50151 19.8363 0.62637 19.886C0.751231 19.9357 0.884841 19.9595 1.01915 19.9561H1.21819L5.47774 19.0989C5.69423 19.0729 5.91377 19.1038 6.11468 19.1886C8.24296 20.1056 10.624 20.2502 12.8473 19.5975C15.0707 18.9448 16.9969 17.5357 18.2941 15.6131C19.5912 13.6904 20.1779 11.3748 19.953 9.06544C19.7281 6.75605 18.7057 4.5976 17.0621 2.96221L17.0123 2.94228ZM5.99525 10.9857C5.79842 10.9857 5.606 10.9273 5.44234 10.8177C5.27868 10.7082 5.15112 10.5526 5.07579 10.3704C5.00046 10.1883 4.98076 9.98791 5.01916 9.79456C5.05756 9.60122 5.15234 9.42362 5.29153 9.28423C5.43071 9.14484 5.60804 9.04991 5.8011 9.01145C5.99415 8.973 6.19426 8.99273 6.37611 9.06817C6.55796 9.14361 6.71339 9.27136 6.82275 9.43527C6.93211 9.59918 6.99048 9.79188 6.99048 9.98901C6.99048 10.2534 6.88562 10.5069 6.69898 10.6938C6.51234 10.8807 6.2592 10.9857 5.99525 10.9857ZM9.97614 10.9857C9.7793 10.9857 9.58689 10.9273 9.42322 10.8177C9.25956 10.7082 9.132 10.5526 9.05667 10.3704C8.98135 10.1883 8.96164 9.98791 9.00004 9.79456C9.03844 9.60122 9.13323 9.42362 9.27241 9.28423C9.4116 9.14484 9.58893 9.04991 9.78198 9.01145C9.97503 8.973 10.1751 8.99273 10.357 9.06817C10.5388 9.14361 10.6943 9.27136 10.8036 9.43527C10.913 9.59918 10.9714 9.79188 10.9714 9.98901C10.9714 10.2534 10.8665 10.5069 10.6799 10.6938C10.4932 10.8807 10.2401 10.9857 9.97614 10.9857ZM13.957 10.9857C13.7602 10.9857 13.5678 10.9273 13.4041 10.8177C13.2404 10.7082 13.1129 10.5526 13.0376 10.3704C12.9622 10.1883 12.9425 9.98791 12.9809 9.79456C13.0193 9.60122 13.1141 9.42362 13.2533 9.28423C13.3925 9.14484 13.5698 9.04991 13.7629 9.01145C13.9559 8.973 14.156 8.99273 14.3379 9.06817C14.5197 9.14361 14.6752 9.27136 14.7845 9.43527C14.8939 9.59918 14.9522 9.79188 14.9522 9.98901C14.9522 10.2534 14.8474 10.5069 14.6607 10.6938C14.4741 10.8807 14.221 10.9857 13.957 10.9857Z" fill="#246BFD"/>
</svg>
