<svg width="22" height="22" viewBox="0 0 22 22" fill="none" xmlns="http://www.w3.org/2000/svg">
<path d="M7 10.3151C7 10.4304 6.9561 10.541 6.87796 10.6226C6.79982 10.7041 6.69384 10.7499 6.58333 10.7499C6.47283 10.7499 6.36685 10.7041 6.28871 10.6226C6.21057 10.541 6.16667 10.4304 6.16667 10.3151C6.16667 10.1998 6.21057 10.0892 6.28871 10.0077C6.36685 9.92615 6.47283 9.88034 6.58333 9.88034C6.69384 9.88034 6.79982 9.92615 6.87796 10.0077C6.9561 10.0892 7 10.1998 7 10.3151ZM7 10.3151H6.58333M11.1667 10.3151C11.1667 10.4304 11.1228 10.541 11.0446 10.6226C10.9665 10.7041 10.8605 10.7499 10.75 10.7499C10.6395 10.7499 10.5335 10.7041 10.4554 10.6226C10.3772 10.541 10.3333 10.4304 10.3333 10.3151C10.3333 10.1998 10.3772 10.0892 10.4554 10.0077C10.5335 9.92615 10.6395 9.88034 10.75 9.88034C10.8605 9.88034 10.9665 9.92615 11.0446 10.0077C11.1228 10.0892 11.1667 10.1998 11.1667 10.3151ZM11.1667 10.3151H10.75M15.3333 10.3151C15.3333 10.4304 15.2894 10.541 15.2113 10.6226C15.1332 10.7041 15.0272 10.7499 14.9167 10.7499C14.8062 10.7499 14.7002 10.7041 14.622 10.6226C14.5439 10.541 14.5 10.4304 14.5 10.3151C14.5 10.1998 14.5439 10.0892 14.622 10.0077C14.7002 9.92615 14.8062 9.88034 14.9167 9.88034C15.0272 9.88034 15.1332 9.92615 15.2113 10.0077C15.2894 10.0892 15.3333 10.1998 15.3333 10.3151ZM15.3333 10.3151H14.9167M20.75 10.3151C20.75 15.5974 16.2722 19.8802 10.75 19.8802C9.79132 19.8815 8.83671 19.7501 7.91111 19.4895C6.6064 20.447 5.01481 20.8821 3.42778 20.715C3.25133 20.6973 3.07563 20.6721 2.90111 20.6397C3.44874 19.9662 3.82275 19.1581 3.98778 18.2919C4.08778 17.762 3.84 17.2472 3.46889 16.8704C1.78333 15.1591 0.75 12.8531 0.75 10.3151C0.75 5.03286 5.22778 0.75 10.75 0.75C16.2722 0.75 20.75 5.03286 20.75 10.3151Z" stroke="#757575" stroke-width="1.5" stroke-linecap="round" stroke-linejoin="round"/>
</svg>
