<svg width="17" height="20" viewBox="0 0 17 20" fill="none" xmlns="http://www.w3.org/2000/svg">
<path d="M17 9.09779V14.0907C17 17.1866 17 18.7356 16.3068 19.4115C15.9762 19.7345 15.5588 19.9375 15.1139 19.9915C14.1818 20.1045 13.0928 19.0846 10.9159 17.0456C9.95256 16.1446 9.47183 15.6936 8.91555 15.5756C8.64128 15.5171 8.35872 15.5171 8.08444 15.5756C7.52722 15.6936 7.0465 16.1446 6.08411 17.0456C3.90717 19.0846 2.81822 20.1045 1.88606 19.9905C1.4405 19.9364 1.02275 19.7336 0.693222 19.4115C-6.33299e-08 18.7356 0 17.1876 0 14.0907V9.09679C0 4.80989 -1.2666e-07 2.66494 1.24478 1.33297C2.48956 0 4.49367 0 8.5 0C12.5073 0 14.5104 0 15.7552 1.33197C17 2.66494 17 4.80989 17 9.09779Z" fill="#246BFD"/>
<path d="M5.66683 3.25C5.47897 3.25 5.2988 3.32902 5.16596 3.46966C5.03312 3.61031 4.9585 3.80107 4.9585 3.99998C4.9585 4.19889 5.03312 4.38965 5.16596 4.5303C5.2988 4.67095 5.47897 4.74997 5.66683 4.74997H11.3335C11.5214 4.74997 11.7015 4.67095 11.8344 4.5303C11.9672 4.38965 12.0418 4.19889 12.0418 3.99998C12.0418 3.80107 11.9672 3.61031 11.8344 3.46966C11.7015 3.32902 11.5214 3.25 11.3335 3.25H5.66683Z" fill="white"/>
</svg>
