<svg width="19" height="22" viewBox="0 0 19 22" fill="none" xmlns="http://www.w3.org/2000/svg">
<path d="M0.75 7.65976C0.75 4.40247 0.75 2.77382 1.6836 1.76191C2.61719 0.75 4.1198 0.75 7.125 0.75H11.375C14.3802 0.75 15.8828 0.75 16.8164 1.76191C17.75 2.77382 17.75 4.40247 17.75 7.65976V15.5226C17.75 18.6127 17.75 20.1578 16.8529 20.6304C15.9559 21.103 14.835 20.1484 12.5932 18.2392L11.8757 17.6282C10.6152 16.5548 9.98496 16.018 9.25 16.018C8.51504 16.018 7.88478 16.5548 6.62426 17.6282L5.9068 18.2392C3.66502 20.1484 2.54412 21.103 1.64706 20.6304C0.75 20.1578 0.75 18.6127 0.75 15.5226V7.65976Z" stroke="#9F9E9E" stroke-width="1.5"/>
<rect x="4.39307" y="6.13965" width="9.71428" height="1.10556" rx="0.55278" fill="#9F9E9E"/>
</svg>
