<svg width="23" height="25" viewBox="0 0 23 25" fill="none" xmlns="http://www.w3.org/2000/svg">
<path d="M11.3021 0C8.28178 0 5.83333 2.44844 5.83333 5.46875C5.83333 8.48906 8.28178 10.9375 11.3021 10.9375C14.3224 10.9375 16.7708 8.48906 16.7708 5.46875C16.7708 2.44844 14.3224 0 11.3021 0Z" fill="#FEA01D"/>
<path d="M5.46875 13.8542C2.44844 13.8542 0 16.3026 0 19.3229V21.0558C0 22.1543 0.79608 23.0909 1.88019 23.2679C8.12014 24.2866 14.484 24.2866 20.724 23.2679C21.8081 23.0909 22.6042 22.1543 22.6042 21.0558V19.3229C22.6042 16.3026 20.1557 13.8542 17.1354 13.8542H16.6383C16.3693 13.8542 16.1019 13.8967 15.8461 13.9802L14.5839 14.3924C12.4514 15.0887 10.1527 15.0887 8.02023 14.3924L6.75802 13.9802C6.50226 13.8967 6.2349 13.8542 5.96585 13.8542H5.46875Z" fill="#FEA01D"/>
</svg>
