<svg width="20" height="20" viewBox="0 0 20 20" fill="none" xmlns="http://www.w3.org/2000/svg">
<path d="M10 12C12.4134 12 14.7745 12.768 16.5186 13.8818C18.3078 15.0246 19.25 16.3909 19.25 17.5C19.25 17.531 19.2434 17.6144 19.0762 17.7607C18.8993 17.9155 18.603 18.0822 18.1738 18.2432C17.3202 18.5632 16.1404 18.7892 14.9072 18.9434C13.685 19.0961 12.457 19.1733 11.5312 19.2119C11.0693 19.2312 10.6844 19.2403 10.416 19.2451C10.2822 19.2475 10.1774 19.2484 10.1064 19.249C10.0709 19.2493 10.0433 19.2499 10.0254 19.25H9.97461C9.95673 19.2499 9.92907 19.2493 9.89355 19.249C9.82258 19.2484 9.71778 19.2475 9.58398 19.2451C9.31556 19.2403 8.93067 19.2312 8.46875 19.2119C7.54297 19.1733 6.31496 19.0961 5.09277 18.9434C3.85956 18.7892 2.6798 18.5632 1.82617 18.2432C1.39703 18.0822 1.10072 17.9155 0.923828 17.7607C0.756592 17.6144 0.75 17.531 0.75 17.5C0.75 16.3909 1.69218 15.0246 3.48145 13.8818C5.2255 12.768 7.58665 12 10 12ZM10 0.75C11.1272 0.75 12.2079 1.19809 13.0049 1.99512C13.8019 2.79215 14.25 3.87283 14.25 5C14.25 6.12717 13.8019 7.20785 13.0049 8.00488C12.2079 8.80191 11.1272 9.25 10 9.25C8.87283 9.25 7.79215 8.80191 6.99512 8.00488C6.19809 7.20785 5.75 6.12717 5.75 5C5.75 3.87283 6.19809 2.79215 6.99512 1.99512C7.79215 1.19809 8.87283 0.75 10 0.75Z" fill="#246BFD" stroke="#246BFD" stroke-width="1.5"/>
</svg>
